<svg width="332" height="117" viewBox="0 0 332 117" fill="none" xmlns="http://www.w3.org/2000/svg">
<g clip-path="url(#clip0_121_7833)">
<path d="M73.4221 25.9482C70.4347 30.8872 67.3181 35.8999 64.0726 41.0048C60.827 46.1097 57.526 51.233 54.1514 56.3564C57.8764 55.4165 61.6752 54.4029 65.5294 53.2787C69.3835 52.1729 73.2377 50.9197 77.0734 49.5376C80.9091 48.1554 84.6894 46.6073 88.4145 44.875C92.1396 43.1426 95.7355 41.1707 99.2209 38.9592C101.6 35.9921 104.015 32.9328 106.487 29.7446C108.958 26.5563 111.558 23.5892 114.287 20.8249C115.486 19.6822 116.555 18.8898 117.477 18.4291C118.399 17.9683 119.082 17.8209 119.524 17.9868C119.967 18.1526 120.096 18.6686 119.912 19.498C119.727 20.3457 119.137 21.4699 118.123 22.9074C116.998 24.437 115.762 25.9482 114.398 27.4225C113.033 28.8968 111.595 30.3343 110.083 31.7165C108.57 33.0987 107.021 34.3887 105.472 35.6051C103.905 36.8214 102.374 37.8903 100.881 38.8302C98.0406 42.9215 95.2007 47.1233 92.3608 51.4358C89.5025 55.7482 86.6811 60.1159 83.8596 64.5205C81.0382 68.9435 78.2905 73.3481 75.5797 77.7527C72.8873 82.1757 70.3056 86.525 67.816 90.819C67.687 91.0217 67.4472 91.0586 67.1153 90.9664C66.7834 90.8743 66.5067 90.6347 66.2486 90.303C65.9904 89.9528 65.8429 89.5289 65.7875 89.0129C65.7322 88.4969 65.8982 87.8887 66.267 87.2069C71.0063 79.227 76.1144 71.2656 81.5914 63.3595C87.0499 55.4533 92.6375 47.7868 98.2988 40.3967C94.8504 42.4607 91.2913 44.3405 87.6031 46.0176C83.9149 47.6946 80.1714 49.2058 76.3726 50.5327C72.5738 51.8596 68.7565 53.0944 64.9208 54.2001C61.0851 55.3059 57.3232 56.3379 53.6535 57.2778C51.8278 59.9869 49.8731 62.8435 47.8077 65.829C45.7423 68.8145 43.6032 71.8 41.3718 74.7856C39.1405 77.7711 36.8723 80.6645 34.5671 83.4842C32.262 86.2854 29.9938 88.8839 27.7256 91.2429C24.646 94.5417 21.6401 96.9559 18.6896 98.4487C15.739 99.9599 13.0835 100.715 10.6862 100.734C8.28891 100.752 6.27885 100.144 4.65605 98.891C3.03326 97.6378 2.03745 95.887 1.63175 93.6755C1.22605 91.464 1.55799 88.8655 2.59067 85.9168C3.6418 82.9497 5.63342 79.7983 8.56552 76.4442C10.9259 73.772 13.6368 71.4867 16.6979 69.5701C19.7407 67.6535 23.0785 65.9396 26.6745 64.4652C30.2704 62.9909 34.0877 61.664 38.1078 60.5029C42.1279 59.3419 46.2771 58.2546 50.5554 57.2041C51.3299 55.9694 52.2519 54.495 53.3031 52.7627C54.3726 51.0303 55.4791 49.2058 56.6593 47.2892C57.8395 45.3726 59.0382 43.4006 60.2737 41.4103C61.5093 39.4199 62.6895 37.5033 63.8144 35.6788C64.9393 33.8543 65.9904 32.1588 66.9493 30.6108C67.9082 29.0627 68.7012 27.7727 69.3282 26.7222C69.8261 25.9297 70.3424 25.3953 70.9141 25.1373C71.4858 24.8609 71.9837 24.7687 72.4078 24.8424C72.832 24.9161 73.1639 25.082 73.3852 25.3216C73.588 25.5427 73.6065 25.7639 73.4221 25.9482ZM27.0433 90.6716C29.1087 88.3126 31.1556 85.7694 33.2025 83.0603C35.231 80.3512 37.2226 77.5868 39.1405 74.7671C41.0768 71.9659 42.9393 69.1278 44.7465 66.2897C46.5537 63.4516 48.3056 60.7057 49.9837 58.0334C45.7976 59.0655 41.7222 60.1528 37.7943 61.2954C33.8664 62.438 30.1413 63.7096 26.6376 65.1471C23.1338 66.5846 19.9067 68.2616 16.9377 70.1783C13.9687 72.0949 11.3316 74.3433 9.02654 76.9049C6.20509 80.1485 4.28723 83.2077 3.29143 86.0458C2.29562 88.8839 1.98213 91.3534 2.35094 93.4359C2.71976 95.5369 3.67869 97.1586 5.20928 98.3197C6.73987 99.4807 8.65772 100.034 10.926 99.9783C13.1942 99.923 15.739 99.1674 18.5236 97.6931C21.345 96.2187 24.1849 93.8782 27.0433 90.6716ZM101.932 37.4296C103.241 36.4897 104.606 35.4576 106.026 34.315C107.445 33.1724 108.847 31.993 110.248 30.7213C111.65 29.4682 112.978 28.1412 114.25 26.7591C115.523 25.3769 116.647 23.9947 117.643 22.6125C118.584 21.2856 119.155 20.2904 119.34 19.6085C119.543 18.9451 119.469 18.5765 119.1 18.5028C118.75 18.4291 118.16 18.6318 117.367 19.0925C116.555 19.5532 115.689 20.272 114.711 21.1934C113.623 22.2992 112.517 23.5339 111.41 24.8793C110.285 26.243 109.16 27.6437 108.036 29.0996C106.892 30.5555 105.823 32.0114 104.79 33.4673C103.739 34.9232 102.798 36.2317 101.932 37.4296Z" fill="#9EB359" stroke="#9EB359" stroke-width="1.5" stroke-miterlimit="10"/>
<path d="M93.8914 68.3356C94.3524 67.9486 94.795 67.6353 95.2007 67.4141C95.6064 67.193 96.1412 67.0271 96.8051 66.935C96.5838 66.4927 96.4916 66.0319 96.51 65.5344C96.5285 65.0368 96.6391 64.6313 96.8604 64.2812C97.0632 63.931 97.3952 63.6914 97.8193 63.544C98.2435 63.3966 98.7229 63.415 99.2761 63.6177C99.774 63.8573 100.143 64.2259 100.401 64.6866C100.659 65.1473 100.825 65.6818 100.899 66.2347C100.973 66.806 100.973 67.3957 100.899 68.0039C100.825 68.612 100.751 69.1833 100.659 69.6625C101.858 70.1048 103.057 70.1417 104.218 69.7731C105.399 69.4045 106.468 68.7226 107.445 67.7459C107.685 67.5431 107.851 67.5247 107.943 67.6721C108.036 67.8196 108.017 67.967 107.888 68.1144C106.745 69.2018 105.583 69.9205 104.366 70.2891C103.167 70.6577 101.858 70.6392 100.456 70.2522C100.18 71.1921 99.8294 72.1136 99.3868 73.035C98.9442 73.9565 98.3725 74.8042 97.6902 75.5783C97.0079 76.3707 96.1965 76.9605 95.256 77.3475C94.3156 77.7529 93.4119 77.6792 92.5268 77.1263C91.8629 76.7393 91.4572 76.1496 91.2912 75.394C91.1437 74.6199 91.1437 73.8091 91.2912 72.9429C91.4572 72.0767 91.7523 71.229 92.2133 70.3997C92.6928 69.5703 93.246 68.8885 93.8914 68.3356ZM99.94 70.0311C98.7414 69.5335 97.8378 68.8332 97.2292 67.8933C96.4731 68.2434 95.8461 68.741 95.3114 69.4045C94.795 70.0679 94.3709 70.7867 94.0574 71.5423C93.7439 72.3163 93.541 73.0903 93.4673 73.8644C93.3935 74.6568 93.4673 75.3387 93.707 75.9284C93.873 76.3154 94.1127 76.5366 94.3893 76.5919C94.6844 76.6472 94.9979 76.6103 95.3298 76.5182C95.6617 76.426 96.0121 76.2417 96.3441 76.0021C96.676 75.7626 96.9895 75.4861 97.2292 75.1913C97.8931 74.4909 98.4463 73.6801 98.8704 72.7402C99.3315 71.8371 99.6634 70.9341 99.94 70.0311ZM99.1471 67.1561C99.3315 67.2483 99.3868 67.3957 99.3315 67.5616C99.2761 67.7274 99.1471 67.8011 98.9627 67.7459C98.8336 67.6906 98.6492 67.6537 98.4647 67.6353C98.2619 67.6169 98.0775 67.6169 97.8746 67.6721C98.391 68.354 99.1102 68.9622 100.069 69.4413C100.143 68.999 100.217 68.5015 100.272 67.967C100.327 67.4326 100.327 66.8981 100.272 66.419C100.217 65.9214 100.088 65.4791 99.9031 65.0552C99.7187 64.6313 99.4052 64.3364 98.9995 64.1337C98.5385 63.9863 98.1697 63.9863 97.8931 64.1337C97.6165 64.2812 97.4321 64.5207 97.3214 64.834C97.2108 65.1473 97.1739 65.4975 97.2108 65.8661C97.2476 66.2347 97.3214 66.5664 97.4689 66.8612C97.9668 66.806 98.5385 66.8981 99.1471 67.1561Z" fill="#9EB359" stroke="#9EB359" stroke-width="1.5" stroke-miterlimit="10"/>
<path d="M108.976 67.2296C109.861 66.9348 110.451 66.9532 110.746 67.2665C111.023 67.5798 111.041 68.0958 110.765 68.7777C109.972 70.6575 109.216 72.4267 108.478 74.1037C107.741 75.7808 107.021 77.3841 106.284 78.9138C106.966 77.8817 107.777 76.8313 108.681 75.7808C109.585 74.7119 110.47 73.7536 111.337 72.8505C112.425 71.7632 113.383 71.0813 114.195 70.7865C115.006 70.4916 115.633 70.639 116.076 71.2288C116.242 71.4315 116.371 71.7079 116.463 72.0765C116.574 72.4451 116.666 72.8321 116.777 73.2191C116.869 73.6061 116.979 73.9932 117.09 74.3617C117.201 74.7303 117.348 75.0436 117.551 75.2832C117.735 75.5781 118.16 75.6518 118.805 75.5044C119.45 75.3569 120.151 75.1358 120.889 74.8409C121.627 74.546 122.346 74.2327 123.028 73.8826C123.71 73.5324 124.208 73.2744 124.54 73.0717C126.034 72.2424 127.472 71.3578 128.874 70.4547C130.275 69.5517 131.658 68.6487 133.005 67.7641C133.17 67.6719 133.3 67.6719 133.41 67.8009C133.502 67.9299 133.466 68.0589 133.3 68.2064C132.23 68.9435 130.921 69.8097 129.409 70.7865C127.896 71.7816 126.329 72.74 124.725 73.6799C123.95 74.1222 123.176 74.546 122.383 74.933C121.59 75.3201 120.815 75.6702 120.041 75.9651C119.266 76.2599 118.565 76.4627 117.938 76.5548C117.293 76.647 116.758 76.6101 116.297 76.4074C115.799 76.1678 115.467 75.7808 115.283 75.2648C115.098 74.7488 114.988 74.1406 114.914 73.4587C114.84 72.7768 114.73 72.2977 114.545 72.0581C114.361 71.8185 114.121 71.7079 113.826 71.7632C113.513 71.8185 113.199 71.9844 112.849 72.2792C112.498 72.5741 112.111 72.8874 111.705 73.2376C110.064 74.8593 108.552 76.6101 107.132 78.4899C105.73 80.3697 104.587 82.1942 103.702 83.9634C103.554 84.4609 103.333 84.7005 103.001 84.7005C102.688 84.7005 102.559 84.4978 102.632 84.1108C102.983 83.0235 103.425 81.7519 103.942 80.2591C104.458 78.7847 105.03 77.2551 105.638 75.7071C106.247 74.159 106.837 72.6294 107.409 71.1551C107.999 69.6623 108.515 68.3538 108.976 67.2296Z" fill="#9EB359" stroke="#9EB359" stroke-width="1.5" stroke-miterlimit="10"/>
<path d="M141.948 66.6401C142.077 66.7322 142.077 66.8796 141.948 67.0455C141.819 67.2114 141.672 67.2482 141.487 67.1561C140.621 66.511 139.68 66.3268 138.666 66.6032C137.652 66.8796 136.711 67.3957 135.826 68.1512C134.941 68.9253 134.203 69.8467 133.613 70.9341C133.023 72.0214 132.709 73.0534 132.673 74.0486C132.599 75.1912 132.986 75.6335 133.779 75.4124C134.59 75.1912 135.494 74.6936 136.508 73.9012C137.523 73.1087 138.463 72.2794 139.33 71.4316C140.196 70.5655 140.694 70.0679 140.823 69.9205C141.266 69.4229 141.635 69.1649 141.967 69.1464C142.299 69.128 142.557 69.2386 142.76 69.4782C142.963 69.7362 143.092 70.0495 143.165 70.4365C143.239 70.8235 143.295 71.2289 143.313 71.6159C143.331 72.3531 143.258 73.164 143.129 74.0117C142.999 74.8779 142.852 75.7257 142.686 76.555C145.12 75.4308 147.444 74.1592 149.657 72.7401C151.87 71.3395 153.898 69.6624 155.724 67.7458C155.908 67.5984 156.056 67.5799 156.185 67.709C156.314 67.838 156.277 67.9854 156.092 68.1881C154.248 70.16 152.183 71.8555 149.896 73.293C147.61 74.7305 145.139 76.0758 142.483 77.3659C141.69 80.0381 140.547 82.8209 139.072 85.7696C137.578 88.6998 135.863 91.5932 133.871 94.4313C131.898 97.2694 129.722 99.9601 127.362 102.522C125.001 105.083 122.549 107.332 119.967 109.248C118.639 110.28 117.127 111.276 115.412 112.252C113.715 113.211 111.945 114.022 110.156 114.648C108.368 115.293 106.616 115.662 104.919 115.754C103.223 115.846 101.729 115.551 100.419 114.869C99.2024 114.224 98.3541 113.358 97.8746 112.271C97.3952 111.183 97.1555 110.022 97.1555 108.751C97.1739 107.498 97.3952 106.189 97.8562 104.825C98.2988 103.462 98.8705 102.19 99.5343 101.011C100.954 98.4489 102.817 96.1821 105.159 94.247C107.501 92.2935 110.046 90.5612 112.793 89.0315C115.541 87.5019 118.362 86.175 121.239 85.0324C124.116 83.9082 126.827 82.8393 129.372 81.8441C131.529 81.107 133.539 80.3882 135.402 79.7064C137.264 79.0061 139.127 78.2505 141.008 77.4211C141.34 76.3891 141.672 75.2834 141.985 74.1223C142.299 72.9613 142.465 71.8924 142.502 70.8972C142.502 70.3628 142.428 69.9942 142.299 69.8283C142.151 69.6624 141.875 69.773 141.45 70.16C140.842 70.8051 139.938 71.6712 138.74 72.777C137.541 73.8827 136.342 74.8226 135.107 75.5967C133.871 76.3707 132.783 76.7761 131.806 76.813C130.828 76.8683 130.275 76.1311 130.109 74.6015C130.091 73.3667 130.497 72.1135 131.326 70.8235C132.156 69.5334 133.17 68.4645 134.369 67.5615C135.568 66.6769 136.859 66.0872 138.242 65.8292C139.625 65.5896 140.86 65.8476 141.948 66.6401ZM140.75 78.1767C138.924 79.0245 137.098 79.7616 135.273 80.3882C133.447 81.0333 131.566 81.7151 129.593 82.4707C127.048 83.4475 124.337 84.5164 121.497 85.659C118.639 86.8016 115.873 88.1101 113.181 89.6213C110.488 91.1325 107.98 92.8464 105.675 94.7999C103.37 96.7534 101.471 99.0017 100.014 101.563C99.4052 102.688 98.9258 103.885 98.5385 105.12C98.1697 106.355 97.9484 107.534 97.9115 108.677C97.8747 109.801 98.0775 110.87 98.5016 111.865C98.9442 112.842 99.6819 113.635 100.77 114.224C102.005 114.961 103.425 115.238 105.011 115.035C106.597 114.832 108.202 114.39 109.806 113.708C111.41 113.026 112.996 112.16 114.545 111.128C116.094 110.096 117.459 109.083 118.621 108.087C120.907 106.171 123.157 103.959 125.407 101.471C127.638 98.9833 129.74 96.4032 131.695 93.7494C133.65 91.0772 135.402 88.4049 136.969 85.7327C138.518 82.9868 139.791 80.4988 140.75 78.1767Z" fill="#9EB359" stroke="#9EB359" stroke-width="1.5" stroke-miterlimit="10"/>
<path d="M272.639 45.9989C272.823 45.7593 273.008 45.704 273.155 45.8515C273.303 45.9989 273.303 46.1464 273.192 46.2938C270.776 48.9476 268.176 51.2144 265.392 53.0573C262.607 54.9002 259.693 56.4667 256.651 57.7199C253.608 58.9731 250.436 59.9683 247.154 60.687C243.871 61.4057 240.496 61.977 237.066 62.4193C236.642 63.5988 236.089 65.239 235.388 67.3031C234.688 69.3672 233.987 71.6339 233.323 74.0666C232.641 76.4993 232.069 79.0056 231.571 81.5304C231.073 84.0737 230.815 86.4142 230.815 88.552C230.815 90.6897 231.128 92.5142 231.792 94.0254C232.456 95.5182 233.599 96.4212 235.222 96.7161C235.407 96.7714 235.462 96.882 235.37 97.0847C235.278 97.2874 235.13 97.3611 234.89 97.3058C233.231 96.9557 231.995 96.0526 231.221 94.5783C230.428 93.104 229.948 91.2979 229.782 89.1785C229.616 87.0592 229.69 84.7371 230.004 82.1939C230.335 79.6506 230.76 77.1443 231.294 74.6932C231.829 72.2237 232.401 69.9385 233.009 67.8191C233.618 65.6997 234.134 63.9674 234.522 62.6405C231.147 62.9906 227.827 63.2487 224.563 63.4514C221.299 63.6541 218.017 63.8015 214.753 63.8937C211.71 68.0402 208.667 72.021 205.606 75.8727C202.545 79.7244 199.429 83.3181 196.238 86.6722C194.818 88.1465 193.103 89.842 191.038 91.7402C188.973 93.6384 186.815 95.3523 184.528 96.882C182.242 98.4116 179.937 99.5542 177.631 100.328C175.326 101.084 173.224 101.047 171.362 100.218C170.144 99.6279 169.204 98.817 168.559 97.785C167.913 96.753 167.489 95.5919 167.286 94.3019C167.083 93.0118 167.065 91.6849 167.249 90.3027C167.434 88.9205 167.71 87.5936 168.098 86.3036C168.89 83.9262 169.978 81.7331 171.398 79.7244C172.818 77.6972 174.441 75.8727 176.267 74.2509C178.092 72.6291 180.103 71.2101 182.279 69.9937C184.455 68.7774 186.667 67.8191 188.936 67.0635C192.827 65.7735 196.828 64.9257 200.922 64.4834C205.016 64.0411 209.497 63.691 214.329 63.4514C217.095 59.7471 219.824 56.0244 222.517 52.2833C225.209 48.5421 228.012 44.8194 230.926 41.1152C232.88 38.5535 234.817 36.1393 236.753 33.9094C238.671 31.661 240.57 29.6338 242.433 27.8093C244.295 25.9848 246.139 24.4367 247.965 23.1836C249.772 21.9304 251.561 21.0089 253.294 20.4192C253.7 20.327 253.884 20.4376 253.811 20.7878C253.755 21.1379 253.7 21.3775 253.682 21.5249C252.612 24.3446 251.395 27.3486 250.012 30.5552C248.629 33.7619 247.375 36.7659 246.25 39.5856C244.719 43.2898 243.226 46.9757 241.75 50.6431C240.275 54.3105 238.855 58.0332 237.454 61.7743C240.736 61.332 244 60.7423 247.227 60.0051C250.454 59.2679 253.571 58.2912 256.577 57.0749C259.583 55.8585 262.459 54.3658 265.189 52.5597C267.826 50.7537 270.334 48.5606 272.639 45.9989ZM213.849 64.0411C209.313 64.2807 204.942 64.6493 200.738 65.11C196.533 65.5707 192.587 66.4553 188.88 67.727C186.557 68.5194 184.344 69.5146 182.223 70.7309C180.103 71.9472 178.148 73.3479 176.396 74.9881C174.644 76.6098 173.113 78.4528 171.823 80.4984C170.532 82.544 169.554 84.7924 168.89 87.2619C168.688 88.4045 168.577 89.5656 168.577 90.745C168.577 91.9245 168.706 93.0671 168.983 94.1544C169.241 95.2418 169.665 96.2185 170.255 97.0847C170.827 97.9509 171.601 98.6327 172.542 99.1119C173.63 99.6463 174.828 99.8306 176.175 99.6648C177.521 99.4989 178.904 99.075 180.361 98.4116C181.818 97.7481 183.274 96.9004 184.75 95.8868C186.225 94.8732 187.626 93.8043 188.973 92.6617C190.319 91.5191 191.554 90.4133 192.698 89.2891C193.841 88.1834 194.837 87.2066 195.685 86.3589C198.875 83.0048 201.955 79.4479 204.924 75.6699C207.911 71.9288 210.88 68.0402 213.849 64.0411ZM234.724 61.977C236.79 55.361 239.187 48.7264 241.916 42.0366C244.646 35.3468 247.467 28.786 250.399 22.3174C247.393 23.9023 244.277 26.3902 241.086 29.8181C237.878 33.2459 234.595 37.1529 231.202 41.5391C228.344 45.188 225.615 48.837 222.978 52.486C220.359 56.135 217.722 59.7655 215.066 63.3592C218.312 63.1565 221.558 62.9722 224.84 62.7695C228.123 62.5852 231.405 62.3272 234.724 61.977Z" fill="#9EB359" stroke="#9EB359" stroke-width="1.5" stroke-miterlimit="10"/>
<path d="M251.598 67.2296C252.483 66.9348 253.073 66.9532 253.368 67.2665C253.645 67.5798 253.663 68.0958 253.387 68.7777C252.594 70.6575 251.838 72.4267 251.1 74.1037C250.362 75.7808 249.643 77.3841 248.905 78.9138C249.588 77.8817 250.399 76.8313 251.303 75.7808C252.206 74.7119 253.091 73.7536 253.958 72.8505C255.046 71.7632 256.005 71.0813 256.817 70.7865C257.628 70.4916 258.255 70.639 258.698 71.2288C258.863 71.4315 258.993 71.7079 259.085 72.0765C259.195 72.4451 259.288 72.8321 259.398 73.2191C259.49 73.6061 259.601 73.9932 259.712 74.3617C259.822 74.7303 259.97 75.0436 260.173 75.2832C260.357 75.5781 260.781 75.6518 261.427 75.5044C262.072 75.3569 262.773 75.1358 263.511 74.8409C264.248 74.546 264.967 74.2327 265.65 73.8826C266.332 73.5324 266.83 73.2744 267.162 73.0717C268.656 72.2424 270.094 71.3578 271.495 70.4547C272.897 69.5517 274.28 68.6487 275.626 67.7641C275.792 67.6719 275.921 67.6719 276.032 67.8009C276.124 67.9299 276.087 68.0589 275.921 68.2064C274.852 68.9435 273.542 69.8097 272.03 70.7865C270.518 71.7816 268.951 72.74 267.346 73.6799C266.572 74.1222 265.797 74.546 265.004 74.933C264.211 75.3201 263.437 75.6702 262.662 75.9651C261.888 76.2599 261.187 76.4627 260.56 76.5548C259.915 76.647 259.38 76.6101 258.919 76.4074C258.421 76.1678 258.089 75.7808 257.905 75.2648C257.72 74.7488 257.61 74.1406 257.536 73.4587C257.462 72.7768 257.351 72.2977 257.167 72.0581C256.982 71.8185 256.743 71.7079 256.448 71.7632C256.134 71.8185 255.821 71.9844 255.47 72.2792C255.12 72.5741 254.733 72.8874 254.327 73.2376C252.686 74.8593 251.174 76.6101 249.754 78.4899C248.352 80.3697 247.209 82.1942 246.324 83.9634C246.176 84.4609 245.955 84.7005 245.623 84.7005C245.309 84.7005 245.18 84.4978 245.254 84.1108C245.604 83.0235 246.047 81.7519 246.563 80.2591C247.08 78.7847 247.651 77.2551 248.26 75.7071C248.869 74.159 249.459 72.6294 250.03 71.1551C250.62 69.6623 251.137 68.3538 251.598 67.2296Z" fill="#9EB359" stroke="#9EB359" stroke-width="1.5" stroke-miterlimit="10"/>
<path d="M282.929 71.8183C282.855 71.376 282.763 71.0996 282.615 70.9706C282.468 70.8415 282.154 71.0074 281.675 71.4497C281.122 72.0394 280.495 72.924 279.775 74.0667C279.075 75.2277 278.411 76.4625 277.784 77.7709C277.175 79.0794 276.659 80.3326 276.235 81.5489C275.811 82.7652 275.608 83.7051 275.626 84.4054C275.626 84.6635 275.626 84.903 275.645 85.1426C275.645 85.3822 275.663 85.5849 275.682 85.7324C275.737 85.9351 275.645 86.0641 275.386 86.1378C275.128 86.2115 274.962 86.0825 274.87 85.7324C274.483 84.0553 274.391 82.1387 274.575 80.0009C274.759 77.8631 275.091 75.5963 275.571 73.2374C276.825 67.082 278.909 60.8898 281.822 54.716C284.754 48.5238 288.184 42.7739 292.149 37.4478C294.971 33.7067 298.032 30.3157 301.37 27.3118C304.689 24.3078 308.285 21.9304 312.158 20.2165C314.887 19.037 317.395 18.3552 319.681 18.1893C321.968 18.0234 323.941 18.2814 325.601 18.9633C327.279 19.6452 328.607 20.6957 329.603 22.0779C330.598 23.4601 331.17 25.1003 331.318 26.9985C331.447 28.8967 331.133 30.9976 330.34 33.2828C329.547 35.568 328.22 37.927 326.394 40.3412C323.849 43.64 320.677 46.8099 316.897 49.8507C313.098 52.8915 309.023 55.619 304.671 58.0517C300.319 60.4843 295.911 62.6037 291.43 64.3729C286.949 66.1421 282.8 67.4321 278.946 68.2246C278.171 70.2887 277.507 72.4265 276.972 74.6195C276.438 76.8126 276.013 79.0241 275.7 81.2356C275.977 80.5537 276.309 79.7429 276.696 78.8398C277.083 77.9184 277.526 76.9969 278.042 76.0202C278.54 75.0618 279.056 74.1404 279.591 73.2926C280.126 72.4449 280.661 71.6709 281.232 71.0443C281.97 70.2518 282.634 69.8832 283.224 69.9385C283.814 69.9938 284.22 70.4361 284.459 71.2654C284.681 71.9473 284.92 72.666 285.179 73.3664C285.437 74.0851 285.99 74.5458 286.857 74.7301C287.705 74.9328 288.756 74.7485 290.029 74.2141C291.282 73.6796 292.536 72.9978 293.772 72.2237C295.008 71.4313 296.151 70.602 297.239 69.7542C298.327 68.9065 299.12 68.243 299.636 67.8007C299.802 67.7086 299.931 67.7086 300.005 67.8376C300.079 67.9666 300.023 68.0956 299.858 68.243C298.972 68.9802 297.94 69.8279 296.759 70.7494C295.579 71.6893 294.325 72.5555 293.016 73.3295C291.707 74.122 290.416 74.7301 289.162 75.1724C287.889 75.6147 286.709 75.7437 285.621 75.541C284.865 75.3936 284.275 74.9881 283.888 74.3247C283.445 73.6244 283.15 72.7951 282.929 71.8183ZM279.13 67.598C282.947 66.7134 287.06 65.4049 291.448 63.6726C295.837 61.9402 300.153 59.8946 304.394 57.4988C308.635 55.103 312.637 52.4308 316.399 49.4821C320.161 46.5334 323.296 43.4005 325.841 40.0832C327.611 37.669 328.883 35.3653 329.639 33.1722C330.396 30.9792 330.691 28.9704 330.543 27.1459C330.396 25.3214 329.824 23.7549 328.865 22.4464C327.906 21.138 326.615 20.1981 325.029 19.6084C323.443 19.0186 321.562 18.8343 319.423 19.0923C317.284 19.3319 314.961 20.0875 312.453 21.3038C309.945 22.5386 307.529 24.1972 305.168 26.2982C302.808 28.3991 300.54 30.758 298.364 33.3934C296.188 36.0288 294.122 38.8484 292.168 41.8708C290.194 44.8748 288.387 47.8788 286.746 50.9011C285.105 53.9051 283.63 56.8538 282.32 59.7472C281.029 62.6037 279.96 65.2391 279.13 67.598Z" fill="#9EB359" stroke="#9EB359" stroke-width="1.5" stroke-miterlimit="10"/>
<path d="M106.173 49.6854C106.155 49.3168 106.265 49.0772 106.468 48.9851C106.689 48.8929 107.003 48.9298 107.409 49.1141C107.833 49.2984 108.238 49.6301 108.626 50.1093C109.234 50.7543 109.751 51.4177 110.175 52.118C110.599 52.8184 111.06 53.5002 111.558 54.1821C112.056 54.8456 112.59 55.4722 113.181 56.025C113.771 56.5779 114.545 57.0939 115.486 57.5547C115.744 57.739 115.855 57.9601 115.836 58.2181C115.799 58.4761 115.652 58.5314 115.338 58.384C112.793 56.7622 110.875 55.3432 109.548 54.1084C108.238 52.8736 107.316 51.8969 106.8 51.1966C106.394 50.5516 106.192 50.054 106.173 49.6854Z" fill="#9EB359" stroke="#9EB359" stroke-width="1.5" stroke-miterlimit="10"/>
<path d="M12.2352 27.146C14.7985 22.9442 18.9662 19.4426 23.4473 17.3601C31.2293 13.7296 41.8328 15.4988 50.7398 15.6462C59.868 15.8121 69.2175 16.0148 78.0323 14.6142C82.4396 13.9139 87.4002 12.716 90.8856 10.2096C93.4488 8.36668 97.7087 1.4373 92.9694 0.128825C90.4799 -0.571485 87.9166 1.60316 86.386 2.91164C82.3106 6.39476 78.5855 11.7024 75.5059 16.0701C65.1052 30.7582 57.6182 46.9759 46.9963 61.4981C45.8345 63.083 49.5411 63.6174 50.2419 62.6591C58.7431 51.0487 66.3961 38.4247 74.0122 26.1877C77.7557 20.1614 80.8537 14.0429 85.5377 8.75369C86.7917 7.33465 88.1748 5.98931 89.5947 4.7177C90.7196 3.72252 91.8261 3.31708 91.8445 3.29865C91.8445 3.31708 92.9141 2.96692 92.158 4.97571C91.4019 6.98449 89.1152 8.67998 87.3449 9.82259C83.0851 12.587 76.557 12.8818 71.3014 13.232C62.3575 13.8402 53.2293 13.5453 44.1564 13.3426C35.2679 13.1398 26.822 12.6975 19.4272 16.9731C15.2227 19.4058 11.4054 22.8705 8.879 26.9986C8.08604 28.3071 11.6267 28.1412 12.2352 27.146Z" fill="#9EB359"/>
<path d="M104.181 60.3005C103.813 59.8029 103.647 59.2316 103.278 58.7524C102.891 58.089 102.466 57.9968 101.766 58.2917L99.8294 59.3974C99.3315 59.6186 98.8335 59.8397 98.1144 59.8029C97.4874 59.6923 97.0263 59.2684 97.0632 58.7156C97.137 58.4023 97.303 58.089 97.6902 57.8678C98.5385 57.1859 99.5159 56.5962 100.715 56.1539C102.411 55.5826 103.794 55.9696 104.901 57.3702C105.398 58.1074 105.694 58.9183 105.896 59.7292C105.915 59.895 105.841 60.1162 105.767 60.3558C105.694 60.6691 105.638 60.9824 105.122 60.9639C104.476 61.0376 104.329 60.6322 104.181 60.3005Z" fill="#9EB359"/>
</g>
<defs>
<clipPath id="clip0_121_7833">
<rect width="331.235" height="116.417" fill="white" transform="translate(0.765015)"/>
</clipPath>
</defs>
</svg>
