<svg width="318" height="102" viewBox="0 0 318 102" fill="none" xmlns="http://www.w3.org/2000/svg">
<g clip-path="url(#clip0_121_7816)">
<path d="M34.329 1.63918C34.3726 1.46467 34.5252 1.26833 34.7868 1.09381C35.0701 0.919295 35.3971 0.788405 35.8112 0.679331C36.2253 0.592072 36.6612 0.613887 37.119 0.722961C37.5767 0.85385 37.969 1.11563 38.3178 1.53011C38.9935 2.38089 39.255 3.79885 39.1024 5.82764C38.9281 7.85642 38.4703 10.2561 37.7075 13.0484C36.9446 15.8407 35.9638 18.8947 34.7432 22.2106C33.5226 25.5264 32.193 28.9296 30.7762 32.4199C29.3377 35.9103 27.8555 39.3571 26.3298 42.7602C24.8041 46.1633 23.3655 49.3265 22.0359 52.2933C20.3794 55.7182 18.6139 59.2958 16.7612 62.9825C14.9086 66.6911 13.0777 70.3778 11.2686 74.0863C9.45948 77.7948 7.78116 81.4815 6.19004 85.1464C4.59891 88.8113 3.29113 92.3017 2.2667 95.6176C1.85257 96.8828 1.74359 97.6682 1.91796 98.0172C2.09233 98.3444 2.41928 98.4099 2.877 98.1917C3.33472 97.9736 3.87963 97.6245 4.46813 97.101C5.07842 96.5992 5.62333 96.0975 6.14644 95.6176C14.8214 87.437 23.3219 79.2346 31.6481 71.0104C39.9743 62.7862 48.1915 54.3439 56.2997 45.6834C55.7984 43.8073 55.733 41.5604 56.1035 38.9208C56.4741 36.2812 57.1716 33.4671 58.1742 30.4784C59.1768 27.4898 60.4628 24.5011 62.0539 21.4907C63.6451 18.4803 65.367 15.6661 67.2196 13.0484C69.0941 10.4306 71.0776 8.16183 73.2136 6.2203C75.3497 4.3006 77.4421 2.94808 79.5127 2.16274C81.9539 1.31196 83.7848 1.42104 85.0054 2.42452C86.226 3.44982 86.6401 5.0423 86.226 7.20197C85.9427 8.8599 85.1798 10.7578 83.981 12.9175C82.7604 15.0771 81.2782 17.3677 79.5563 19.7891C77.8126 22.1888 75.8946 24.6757 73.8021 27.2498C71.7097 29.824 69.639 32.2236 67.5684 34.5142C65.5195 36.8047 63.6015 38.9208 61.7924 40.8841C59.9833 42.8474 58.5229 44.4181 57.3895 45.6179C57.9562 47.3631 58.8935 48.4975 60.1359 48.9992C61.4 49.501 62.8386 49.61 64.4515 49.261C66.0644 48.9338 67.8081 48.3012 69.6172 47.4067C71.4481 46.5123 73.2354 45.4652 74.9791 44.2872C76.7228 43.1092 78.3575 41.9312 79.8179 40.775C81.3 39.597 82.4988 38.6154 83.4361 37.8518C83.654 37.6773 83.8502 37.6773 84.0246 37.8518C84.1989 38.0264 84.1554 38.2445 83.8502 38.4845C82.8476 39.3352 81.6052 40.3605 80.0795 41.5604C78.5537 42.7602 76.919 43.96 75.1317 45.1162C73.3444 46.2942 71.5353 47.3413 69.6826 48.2793C67.8299 49.2174 66.0644 49.85 64.3643 50.1772C62.686 50.5045 61.1385 50.4172 59.7653 49.9155C58.3921 49.4137 57.3023 48.3012 56.5395 46.6214C48.453 55.2383 40.3012 63.6588 32.084 71.9048C23.8668 80.1508 15.3881 88.3096 6.60416 96.3811C5.60154 97.2755 4.6643 98.039 3.83604 98.6498C3.00778 99.2606 2.33209 99.5661 1.80898 99.5879C1.28587 99.6097 0.958926 99.3261 0.806352 98.6935C0.653778 98.0608 0.784556 96.9701 1.19869 95.3994C1.93976 92.3235 3.07317 88.964 4.55531 85.2991C6.05926 81.6342 7.65039 77.8385 9.37229 73.9554C11.0942 70.0724 12.7943 66.2548 14.5162 62.4808C16.2381 58.7287 17.7639 55.2165 19.0934 51.966C19.9435 49.9809 20.9243 47.6249 22.0359 44.8762C23.1475 42.1275 24.281 39.2262 25.458 36.1721C26.635 33.0962 27.7684 29.933 28.88 26.6826C29.9916 23.4322 30.9724 20.2909 31.8007 17.2368C32.6289 14.2045 33.2828 11.325 33.7623 8.61994C34.2855 5.87127 34.4598 3.55889 34.329 1.63918ZM57.1716 44.789C58.2832 43.6546 59.7217 42.1276 61.4436 40.2297C63.1873 38.3318 65.0618 36.2594 67.0671 33.9906C69.0723 31.7437 71.1212 29.3659 73.17 26.8572C75.2189 24.3703 77.1152 21.9052 78.8153 19.5055C80.5154 17.1059 81.9757 14.8154 83.1963 12.6993C84.4169 10.5615 85.158 8.75083 85.4195 7.2456C85.7247 5.56586 85.4631 4.25697 84.6131 3.31893C83.763 2.38089 82.3899 2.27182 80.5154 3.01352C78.8371 3.62434 77.0498 4.86778 75.1317 6.76567C73.2136 8.66357 71.3173 10.9105 69.4647 13.4846C67.5902 16.0806 65.8465 18.8947 64.19 21.927C62.5334 24.9593 61.1385 27.9261 59.9615 30.8275C58.7845 33.707 57.9344 36.3902 57.3895 38.8553C56.8664 41.2986 56.7792 43.2837 57.1716 44.789Z" fill="#9EB359" stroke="#9EB359" stroke-width="1.5" stroke-miterlimit="10"/>
<path d="M73.7367 61.9356C73.3662 62.35 72.9303 62.939 72.4725 63.6589C72.0148 64.3788 71.5571 65.1423 71.143 65.9713C70.7288 66.7785 70.3583 67.5638 70.075 68.3273C69.7916 69.0908 69.6608 69.7235 69.6608 70.2688C69.6826 71.1632 70.0096 71.665 70.6852 71.7522C71.3609 71.8395 72.0584 71.7304 72.7777 71.4468C73.8239 71.0324 75.0009 70.3997 76.3305 69.5926C77.6601 68.7854 78.9896 67.9128 80.341 66.9748C81.6924 66.0368 82.9566 65.1205 84.1554 64.1825C85.3541 63.2445 86.3568 62.4155 87.1414 61.6956C87.3594 61.5211 87.5338 61.5211 87.6646 61.7392C87.8171 61.9574 87.7953 62.1101 87.6646 62.241C86.7927 63.0263 85.7465 63.8989 84.5259 64.8588C83.3053 65.8186 81.9975 66.7785 80.6679 67.6947C79.3166 68.6327 77.9652 69.5053 76.6138 70.3125C75.2625 71.1196 74.0637 71.7523 73.0174 72.1667C71.9058 72.6467 70.816 72.8212 69.7698 72.6685C68.7236 72.5158 68.0915 71.8395 67.8953 70.6397C67.7645 70.0289 67.7863 69.2654 67.9607 68.2837C68.1351 67.3238 68.4184 66.3422 68.8108 65.3387C69.2031 64.3352 69.6608 63.4626 70.1621 62.6773C70.6634 61.8919 71.2302 61.3466 71.8187 61.0412C72.0148 60.9321 72.2764 60.8666 72.5597 60.9103C72.8649 60.9321 73.1046 60.9975 73.3444 61.0848C73.5624 61.172 73.7367 61.3029 73.8239 61.4556C73.9111 61.6083 73.8893 61.761 73.7367 61.9356ZM76.8318 56.4382C76.7446 56.8527 76.5702 57.3326 76.2651 57.8344C75.96 58.3361 75.633 58.7506 75.2625 59.056C74.9137 59.296 74.5432 59.3614 74.1291 59.2742C73.7149 59.1869 73.5188 58.8597 73.497 58.3361C73.5406 57.7253 73.7367 57.2236 74.1073 56.8091C74.456 56.3946 74.8701 56.0237 75.3497 55.7183C75.6984 55.4784 76.0471 55.4129 76.3741 55.5438C76.701 55.6529 76.8536 55.9583 76.8318 56.4382Z" fill="#9EB359" stroke="#9EB359" stroke-width="1.5" stroke-miterlimit="10"/>
<path d="M94.9227 63.4842C94.465 64.335 93.5496 65.2949 92.1764 66.3856C90.8032 67.4764 88.8852 68.458 86.4222 69.3742C86.0298 70.814 86.0298 72.0138 86.444 72.9301C86.8363 73.8681 87.9479 74.1299 89.7788 73.6936C91.1738 73.3227 92.7213 72.6901 94.465 71.7957C96.1869 70.9013 97.9306 69.876 99.6743 68.7198C101.418 67.5854 103.075 66.3856 104.622 65.1422C106.17 63.9205 107.434 62.7425 108.415 61.6736C108.633 61.4336 108.851 61.4118 109.025 61.5863C109.199 61.7609 109.221 61.9572 109.069 62.1317C108.022 63.2661 106.693 64.4877 105.102 65.7966C103.51 67.0837 101.81 68.3271 100.045 69.5051C98.2576 70.6831 96.4703 71.7084 94.683 72.6247C92.8957 73.5191 91.2827 74.1517 89.8224 74.5225C88.2313 74.937 86.7491 74.9152 85.3324 74.4353C83.9156 73.9554 83.1309 72.9083 82.9348 71.2721C82.804 70.3123 82.9348 69.3088 83.3053 68.2835C83.6758 67.2582 84.1772 66.2765 84.7875 65.3385C85.4195 64.4005 86.1606 63.5715 87.0107 62.8516C87.8607 62.1317 88.7326 61.5209 89.6044 61.041C90.5199 60.6265 91.3917 60.3429 92.2418 60.2338C93.07 60.1029 93.7675 60.1466 94.2906 60.3211C94.8355 60.4956 95.1843 60.8664 95.3586 61.4118C95.5112 61.9354 95.3804 62.6335 94.9227 63.4842ZM86.7055 68.3489C88.8416 67.4982 90.4763 66.6474 91.6097 65.7748C92.7431 64.9022 93.5278 64.0514 93.9855 63.2006C94.3342 62.5898 94.4432 62.1317 94.3342 61.8045C94.2252 61.4773 93.9637 61.3027 93.5714 61.2591C93.179 61.2373 92.7431 61.2809 92.2854 61.4336C91.8059 61.5863 91.3481 61.8481 90.934 62.1972C89.9968 62.9825 89.1685 63.9205 88.4274 65.0331C87.6646 66.1675 87.0979 67.28 86.7055 68.3489Z" fill="#9EB359" stroke="#9EB359" stroke-width="1.5" stroke-miterlimit="10"/>
<path d="M140.194 61.6738C140.346 61.4338 140.542 61.3684 140.739 61.4557C140.935 61.5429 140.935 61.7393 140.76 62.0447C140.194 62.8954 139.256 64.1607 137.97 65.8841C136.684 67.6074 135.202 69.5053 133.524 71.6214C131.846 73.7374 130.015 75.8753 128.075 78.0786C126.135 80.2819 124.239 82.2452 122.43 83.9904C120.032 86.2155 117.961 87.6771 116.196 88.3752C114.452 89.0733 112.97 89.226 111.793 88.8333C110.594 88.4406 109.679 87.568 109.025 86.2155C108.371 84.863 107.913 83.2487 107.674 81.3944C107.412 79.5402 107.368 77.4896 107.499 75.3081C107.63 73.1048 107.892 70.9669 108.284 68.8509C109.112 64.7061 110.354 60.2558 111.967 55.5438C113.602 50.81 115.607 46.0107 118.027 41.146C117.416 41.146 116.545 41.1678 115.389 41.2333C114.234 41.2987 112.992 41.3205 111.619 41.3205C110.267 41.3205 108.894 41.2551 107.499 41.146C106.104 41.037 104.862 40.8188 103.728 40.5134C102.617 40.208 101.723 39.7935 101.069 39.2481C100.415 38.7028 100.176 37.9829 100.35 37.0885C100.415 36.7831 100.546 36.6304 100.786 36.6304C101.026 36.6304 101.113 36.7831 101.069 37.0885C100.982 37.8738 101.265 38.4846 101.941 38.9427C102.617 39.4008 103.489 39.7499 104.6 39.9898C105.69 40.2298 106.932 40.4043 108.306 40.4916C109.679 40.5788 111.008 40.6225 112.338 40.6225C113.668 40.6225 114.866 40.6007 115.956 40.5352C117.046 40.4698 117.874 40.4043 118.419 40.3607C119.923 37.4811 121.514 34.667 123.236 31.9183C124.936 29.1697 126.745 26.4646 128.642 23.7596C129.361 22.7997 130.037 22.1453 130.669 21.8181C131.301 21.4908 131.846 21.3381 132.282 21.36C132.717 21.3818 133.066 21.5127 133.306 21.7308C133.546 21.949 133.568 22.1453 133.415 22.3198C131.344 25.0903 129.339 27.9699 127.443 30.9367C125.525 33.9253 123.759 36.9358 122.103 40.0117C129.492 39.3572 137.011 38.5282 144.618 37.5684C152.225 36.6085 159.723 36.0414 167.09 35.845C167.33 35.845 167.439 35.9541 167.439 36.1504C167.439 36.3686 167.265 36.4995 166.959 36.5649C163.276 36.6304 159.549 36.8267 155.756 37.1539C151.964 37.4811 148.171 37.8738 144.357 38.3319C140.542 38.79 136.728 39.2263 132.914 39.6844C129.099 40.1425 125.329 40.5352 121.601 40.9061C119.204 45.4217 116.981 50.0901 114.975 54.9548C112.97 59.7977 111.401 64.5752 110.289 69.2654C109.875 71.1415 109.57 73.083 109.352 75.0899C109.134 77.0969 109.069 78.9948 109.156 80.7836C109.243 82.5506 109.526 84.1213 109.962 85.4302C110.398 86.7609 111.139 87.6335 112.12 88.0916C113.123 88.5497 114.409 88.4625 116 87.8298C117.591 87.1972 119.553 85.801 121.885 83.6414C123.781 81.8307 125.699 79.8456 127.639 77.6859C129.579 75.5262 131.366 73.3884 133.023 71.316C134.679 69.2436 136.139 67.3457 137.425 65.6223C138.668 63.7898 139.605 62.5246 140.194 61.6738Z" fill="#9EB359" stroke="#9EB359" stroke-width="1.5" stroke-miterlimit="10"/>
<path d="M219.445 4.60594C219.794 4.36598 220.055 4.34417 220.23 4.51868C220.404 4.6932 220.317 4.91135 219.968 5.15131C216.437 7.98725 213.124 11.3031 210.029 15.1207C206.934 18.9383 204.253 22.7559 202.008 26.5517C204.536 23.6721 207.326 20.9671 210.399 18.4802C213.473 15.9933 216.699 13.7246 220.055 11.7176C223.412 9.71062 226.834 7.94362 230.321 6.43839C233.809 4.93317 237.252 3.73335 240.609 2.81713C243.9 1.92272 247.148 1.33372 250.352 1.09375C253.556 0.853788 256.542 0.984677 259.354 1.50823C262.144 2.03179 264.585 2.90438 266.699 4.16965C268.814 5.43491 270.426 7.11465 271.538 9.23069C272.65 11.3467 273.151 13.8773 272.998 16.8659C272.868 19.8545 271.93 23.3231 270.165 27.2934C268.356 31.5037 265.871 35.823 262.667 40.2078C259.463 44.5926 255.758 48.9337 251.551 53.2094C254.668 54.3002 257.763 55.5218 260.88 56.918C263.997 58.2923 267.113 59.9066 270.274 61.6954C270.535 61.9354 270.557 62.1535 270.383 62.328C270.208 62.5026 269.99 62.5462 269.773 62.4153C263.473 58.7504 257.152 55.9145 250.788 53.9293C247.715 57.2452 244.162 60.6047 240.151 64.0514C236.141 67.4764 231.869 70.814 227.335 74.0644C222.802 77.3149 218.072 80.4126 213.168 83.3576C208.263 86.3026 203.359 88.9204 198.499 91.1673C193.616 93.4142 188.865 95.2467 184.179 96.621C179.492 97.9953 175.133 98.8243 171.057 99.0643C167.352 99.3042 164.213 98.9552 161.685 98.0171C159.156 97.0791 157.347 95.6611 156.236 93.7851C155.146 91.8872 154.841 89.5748 155.32 86.8261C155.8 84.0775 157.195 81.0016 159.527 77.5766C162.077 73.9117 165.194 70.5741 168.878 67.5636C172.561 64.5532 176.288 61.9354 180.081 59.7103C182.086 55.74 184.266 51.5951 186.641 47.254C189.017 42.9128 191.546 38.6153 194.27 34.3396C196.995 30.0639 199.85 25.9191 202.836 21.9269C205.844 17.9348 208.961 14.2917 212.209 11.0413C213.451 9.84151 214.628 8.72895 215.761 7.70365C216.873 6.65654 218.094 5.63124 219.445 4.60594ZM185.312 57.7033C183.546 61.6736 181.89 65.4694 180.321 69.0688C178.751 72.6901 177.334 76.0932 176.07 79.2782C175.961 79.5181 175.743 79.649 175.416 79.6927C175.089 79.7145 174.719 79.6709 174.327 79.5182C173.934 79.3654 173.586 79.1473 173.28 78.8419C172.975 78.5365 172.801 78.1438 172.779 77.6639C172.714 77.0094 172.997 75.8969 173.586 74.3262C174.174 72.7555 174.85 71.0976 175.634 69.3524C176.397 67.6072 177.182 65.9275 177.923 64.2914C178.686 62.6771 179.209 61.4991 179.536 60.7792C176.005 63.0043 172.474 65.5566 169.008 68.4144C165.543 71.2721 162.578 74.5007 160.159 78.122C157.979 81.4379 156.65 84.3829 156.17 86.9788C155.691 89.5748 155.974 91.7127 156.999 93.436C158.045 95.1594 159.767 96.4247 162.208 97.2318C164.649 98.039 167.657 98.3662 171.232 98.1698C175.307 97.8644 179.623 96.97 184.135 95.5084C188.647 94.025 193.202 92.1489 197.823 89.8584C202.422 87.5678 207.043 84.95 211.642 82.005C216.241 79.06 220.687 75.9623 224.959 72.7119C229.231 69.4615 233.264 66.1456 237.056 62.7425C240.849 59.3394 244.271 56.0454 247.322 52.8604C241.35 51.0498 235.531 49.9154 229.864 49.4791C224.197 49.021 218.769 49.0864 213.538 49.6536C208.307 50.2208 203.337 51.2243 198.586 52.6423C193.812 54.0166 189.41 55.7181 185.312 57.7033ZM197.997 33.0525C195.84 36.8483 193.747 40.7532 191.676 44.7889C189.606 48.8247 187.622 52.8168 185.748 56.7871C189.846 54.8019 194.27 53.1222 199 51.726C203.73 50.3517 208.721 49.37 213.974 48.8465C219.205 48.3011 224.676 48.2793 230.365 48.7592C236.054 49.2391 241.873 50.3735 247.867 52.1841C249.437 50.5044 251.224 48.4756 253.186 46.1414C255.147 43.7854 257.065 41.2767 258.918 38.5935C260.771 35.9103 262.493 33.1398 264.084 30.2384C265.675 27.3588 266.895 24.5229 267.745 21.7524C268.596 18.9819 268.966 16.3423 268.857 13.8554C268.748 11.3685 267.985 9.12162 266.547 7.13647C265.174 5.52217 263.452 4.30054 261.403 3.5152C259.354 2.72987 257.152 2.24994 254.82 2.07542C252.488 1.9009 250.069 1.96635 247.606 2.29357C245.143 2.62079 242.832 3.10072 240.674 3.68972C236.817 4.71502 232.871 6.13298 228.839 7.94362C224.807 9.75425 220.905 11.8921 217.135 14.4008C213.364 16.9095 209.833 19.7236 206.542 22.8432C203.185 25.9845 200.373 29.3876 197.997 33.0525Z" fill="#9EB359" stroke="#9EB359" stroke-width="1.5" stroke-miterlimit="10"/>
<path d="M285.095 62.9388C284.812 63.7896 284.485 64.8585 284.093 66.1456C283.7 67.4327 283.373 68.7852 283.112 70.1596C282.85 71.5339 282.698 72.8646 282.654 74.1299C282.589 75.3951 282.741 76.3768 283.09 77.1185C283.417 77.9038 283.962 78.2092 284.725 78.0129C285.488 77.8384 286.251 77.4457 287.013 76.8349C287.994 76.0496 289.04 75.0243 290.174 73.7154C291.285 72.4283 292.375 71.054 293.465 69.6142C294.533 68.1744 295.536 66.7346 296.473 65.3167C297.388 63.8987 298.173 62.6771 298.783 61.6518C298.958 61.3464 299.176 61.2373 299.437 61.3464C299.699 61.4336 299.742 61.6081 299.568 61.8481C298.892 62.9388 298.064 64.2041 297.105 65.6875C296.146 67.1709 295.122 68.6325 294.032 70.1159C292.942 71.5993 291.83 72.9955 290.675 74.3044C289.52 75.6351 288.452 76.6822 287.471 77.4675C286.556 78.1874 285.618 78.6674 284.681 78.9073C283.722 79.1473 282.872 78.9291 282.087 78.2747C281.346 77.7293 280.845 76.9004 280.562 75.7878C280.278 74.6752 280.169 73.4536 280.213 72.1229C280.257 70.7922 280.366 69.4833 280.583 68.1526C280.801 66.8219 281.085 65.6657 281.455 64.6404C280.823 65.1858 280.06 65.7966 279.167 66.4947C278.295 67.1927 277.379 67.8908 276.42 68.6107C275.483 69.3306 274.524 70.0287 273.565 70.6831C272.606 71.3376 271.691 71.9047 270.819 72.4065C270.274 72.7119 269.642 73.0391 268.879 73.41C268.116 73.7808 267.375 74.0208 266.612 74.1735C265.871 74.3262 265.174 74.348 264.563 74.2171C263.953 74.0862 263.539 73.7154 263.299 73.0391C262.929 71.7739 263.146 70.3995 263.975 68.9379C264.781 67.4545 265.893 66.0802 267.266 64.7931C268.639 63.506 270.121 62.3935 271.669 61.4991C273.216 60.6047 274.59 60.0811 275.745 59.972C277.292 59.7321 278.469 60.0375 279.276 60.9101C280.082 61.7827 280.692 62.8298 281.128 64.0296C281.477 63.7242 281.869 63.4188 282.262 63.0697C282.654 62.7425 283.025 62.4589 283.373 62.219C283.7 62.0444 284.136 62.0444 284.638 62.219C285.117 62.3935 285.27 62.6334 285.095 62.9388ZM280.496 64.3786C280.148 63.2879 279.581 62.328 278.774 61.4991C277.968 60.6483 276.944 60.4519 275.723 60.8664C275.069 61.1064 274.328 61.6081 273.456 62.3498C272.584 63.0915 271.756 63.9641 270.928 64.9676C270.121 65.9711 269.358 66.9964 268.683 68.0872C268.007 69.1779 267.506 70.0941 267.179 70.8795C266.874 71.5993 266.786 72.1011 266.939 72.3629C267.092 72.6246 267.353 72.7773 267.724 72.7773C268.094 72.7773 268.53 72.6683 269.053 72.4719C269.576 72.2538 270.078 72.0138 270.557 71.7084C271.298 71.2285 272.127 70.6831 273.02 70.0941C273.914 69.4833 274.807 68.8507 275.723 68.1962C276.617 67.5418 277.488 66.8655 278.295 66.2111C279.123 65.5348 279.864 64.924 280.496 64.3786Z" fill="#9EB359" stroke="#9EB359" stroke-width="1.5" stroke-miterlimit="10"/>
<path d="M299.372 62.3933C299.939 61.9134 300.483 61.5426 300.985 61.259C301.486 60.9972 302.14 60.8009 302.946 60.67C302.685 60.1246 302.576 59.5574 302.598 58.9466C302.62 58.3358 302.75 57.834 303.012 57.4196C303.273 57.0051 303.666 56.6997 304.167 56.5251C304.69 56.3506 305.279 56.3724 305.954 56.6124C306.565 56.9178 307.022 57.3541 307.328 57.9213C307.633 58.4885 307.851 59.1211 307.916 59.8192C308.003 60.5173 308.003 61.2372 307.916 61.9789C307.829 62.7424 307.742 63.4186 307.633 64.0076C309.093 64.553 310.553 64.5966 311.992 64.1385C313.43 63.6804 314.738 62.8515 315.915 61.6516C316.199 61.4117 316.395 61.3899 316.526 61.5644C316.635 61.7389 316.613 61.9352 316.46 62.1097C315.065 63.4405 313.648 64.313 312.166 64.7712C310.706 65.2293 309.115 65.2075 307.393 64.7275C307.066 65.8619 306.63 66.9963 306.085 68.1088C305.54 69.2214 304.865 70.2685 304.014 71.2284C303.164 72.1882 302.184 72.9081 301.05 73.388C299.917 73.8679 298.805 73.7807 297.715 73.1262C296.909 72.6463 296.408 71.9482 296.211 71.0102C296.015 70.0722 296.037 69.0905 296.211 68.0216C296.408 66.9745 296.778 65.9273 297.323 64.902C297.912 63.8986 298.587 63.0696 299.372 62.3933ZM306.739 64.4658C305.279 63.8549 304.189 63.0042 303.426 61.848C302.511 62.2624 301.726 62.8951 301.094 63.7022C300.462 64.5094 299.96 65.382 299.568 66.32C299.176 67.258 298.958 68.1961 298.871 69.1559C298.783 70.1158 298.871 70.9666 299.176 71.6865C299.394 72.1664 299.677 72.4282 300.026 72.4936C300.374 72.5591 300.745 72.5154 301.159 72.4064C301.573 72.2973 301.987 72.0791 302.402 71.7737C302.816 71.4683 303.186 71.1411 303.491 70.7702C304.32 69.9195 304.974 68.9378 305.497 67.7816C305.998 66.669 306.412 65.5565 306.739 64.4658ZM305.758 60.9536C305.976 61.0844 306.042 61.2372 305.976 61.4553C305.911 61.6734 305.758 61.7389 305.518 61.6734C305.344 61.608 305.148 61.5644 304.908 61.5426C304.668 61.5207 304.429 61.5207 304.167 61.5862C304.799 62.437 305.693 63.1569 306.826 63.7459C306.935 63.2005 307.001 62.6115 307.066 61.9352C307.131 61.2808 307.131 60.6482 307.066 60.0373C307.001 59.4265 306.848 58.8811 306.608 58.3576C306.368 57.8558 305.998 57.4632 305.518 57.2232C304.952 57.0487 304.494 57.0487 304.167 57.2232C303.84 57.3977 303.6 57.6813 303.47 58.074C303.339 58.4667 303.295 58.8811 303.317 59.3393C303.361 59.7974 303.448 60.19 303.622 60.5609C304.341 60.5391 305.039 60.6482 305.758 60.9536Z" fill="#9EB359" stroke="#9EB359" stroke-width="1.5" stroke-miterlimit="10"/>
<path d="M205.822 40.8135C207.806 41.1189 209.571 41.228 211.119 41.0971C212.666 40.9662 213.822 40.5517 214.563 39.8536C214.672 39.5918 214.802 39.5482 214.933 39.7227C215.064 39.8754 215.042 40.0936 214.868 40.3554C214.127 41.2934 212.884 41.7951 211.206 41.8606C209.528 41.926 207.566 41.8824 205.365 41.7079C205.365 41.7079 202.248 41.228 201.746 41.1625C201.223 41.0971 197.496 40.5735 195.077 40.2899C192.657 40.0063 190.194 39.9627 187.71 40.1372C185.225 40.3117 182.805 40.8135 180.451 41.6206C178.097 42.4278 175.983 43.7585 174.087 45.6346C173.804 45.8527 173.586 45.8527 173.433 45.6346C173.28 45.4164 173.302 45.1983 173.542 45.0019C175.547 43.0604 177.771 41.6861 180.212 40.8571C182.653 40.0281 185.138 39.5264 187.688 39.3519C190.238 39.1774 192.766 39.1992 195.251 39.4828C197.758 39.7445 200.046 40.0281 202.139 40.3335L205.822 40.8135Z" fill="#9EB359" stroke="#9EB359" stroke-width="1.5" stroke-miterlimit="10"/>
<path d="M108.131 47.9256C107.456 48.3619 106.344 48.82 104.797 49.3217C103.249 49.8235 101.048 50.1289 98.1923 50.2379C97.8653 50.1943 97.7128 50.0416 97.7563 49.7362C97.7999 49.4308 97.9525 49.2781 98.2359 49.2345C99.2603 49.3435 100.11 49.2999 100.808 49.0599C101.505 48.8418 102.181 48.5146 102.813 48.1001C103.445 47.6856 104.055 47.2275 104.622 46.7476C105.211 46.2676 105.843 45.875 106.584 45.5696C107.063 45.3078 107.543 45.2205 108.001 45.286C108.458 45.3514 108.763 45.5041 108.96 45.7659C109.134 46.0059 109.199 46.3331 109.09 46.7257C109.003 47.1184 108.676 47.5329 108.131 47.9256Z" fill="#9EB359" stroke="#9EB359" stroke-width="1.5" stroke-miterlimit="10"/>
<path d="M96.5575 56.542C96.1216 55.953 95.9254 55.2767 95.4895 54.7096C95.0318 53.9242 94.5305 53.8151 93.7022 54.1642L91.4136 55.4731C90.8251 55.7349 90.2366 55.9966 89.3866 55.953C88.6455 55.8221 88.1006 55.3204 88.1442 54.6659C88.2314 54.2951 88.4275 53.9242 88.8852 53.6624C89.8879 52.8553 91.0431 52.1572 92.4598 51.6337C94.4651 50.9574 96.0998 51.4155 97.4076 53.0734C97.9961 53.946 98.3448 54.9059 98.5846 55.8657C98.6064 56.0621 98.5192 56.3239 98.432 56.6075C98.3448 56.9783 98.2794 57.3492 97.6691 57.3273C96.9063 57.4146 96.7319 56.9347 96.5575 56.542Z" fill="#9EB359"/>
<path d="M266.176 89.0463C265.828 87.8247 267.157 86.603 268.77 86.3412C270.405 86.2104 271.843 86.8648 271.952 87.9992C272.257 89.0899 271.168 90.4206 269.555 90.6606C267.964 90.9224 266.503 90.2679 266.176 89.0463Z" fill="#9EB359"/>
</g>
<defs>
<clipPath id="clip0_121_7816">
<rect width="317.376" height="100.479" fill="white" transform="translate(0 0.543457)"/>
</clipPath>
</defs>
</svg>
