<svg width="99" height="99" viewBox="0 0 99 99" fill="none" xmlns="http://www.w3.org/2000/svg">
<rect width="99" height="99" fill="white"/>
<rect width="99" height="99" fill="white"/>
<path d="M4.94999 28.0498H1.64999V31.3498H4.94999V28.0498Z" fill="black"/>
<path d="M4.94999 31.3501H1.64999V34.6501H4.94999V31.3501Z" fill="black"/>
<path d="M4.94999 41.25H1.64999V44.55H4.94999V41.25Z" fill="black"/>
<path d="M4.94999 44.5498H1.64999V47.8498H4.94999V44.5498Z" fill="black"/>
<path d="M4.94999 54.4497H1.64999V57.7497H4.94999V54.4497Z" fill="black"/>
<path d="M4.94999 57.75H1.64999V61.05H4.94999V57.75Z" fill="black"/>
<path d="M4.94999 61.0498H1.64999V64.3498H4.94999V61.0498Z" fill="black"/>
<path d="M8.24998 31.3501H4.94998V34.6501H8.24998V31.3501Z" fill="black"/>
<path d="M8.24998 34.6499H4.94998V37.9499H8.24998V34.6499Z" fill="black"/>
<path d="M8.24998 41.25H4.94998V44.55H8.24998V41.25Z" fill="black"/>
<path d="M8.24998 51.1499H4.94998V54.4499H8.24998V51.1499Z" fill="black"/>
<path d="M8.24998 57.75H4.94998V61.05H8.24998V57.75Z" fill="black"/>
<path d="M8.24998 61.0498H4.94998V64.3498H8.24998V61.0498Z" fill="black"/>
<path d="M8.24998 64.3501H4.94998V67.6501H8.24998V64.3501Z" fill="black"/>
<path d="M11.55 28.0498H8.25V31.3498H11.55V28.0498Z" fill="black"/>
<path d="M11.55 34.6499H8.25V37.9499H11.55V34.6499Z" fill="black"/>
<path d="M11.55 37.9497H8.25V41.2497H11.55V37.9497Z" fill="black"/>
<path d="M11.55 41.25H8.25V44.55H11.55V41.25Z" fill="black"/>
<path d="M11.55 51.1499H8.25V54.4499H11.55V51.1499Z" fill="black"/>
<path d="M11.55 54.4497H8.25V57.7497H11.55V54.4497Z" fill="black"/>
<path d="M11.55 57.75H8.25V61.05H11.55V57.75Z" fill="black"/>
<path d="M11.55 64.3501H8.25V67.6501H11.55V64.3501Z" fill="black"/>
<path d="M11.55 67.6499H8.25V70.9499H11.55V67.6499Z" fill="black"/>
<path d="M14.85 28.0498H11.55V31.3498H14.85V28.0498Z" fill="black"/>
<path d="M14.85 34.6499H11.55V37.9499H14.85V34.6499Z" fill="black"/>
<path d="M14.85 44.5498H11.55V47.8498H14.85V44.5498Z" fill="black"/>
<path d="M14.85 54.4497H11.55V57.7497H14.85V54.4497Z" fill="black"/>
<path d="M14.85 61.0498H11.55V64.3498H14.85V61.0498Z" fill="black"/>
<path d="M18.15 31.3501H14.85V34.6501H18.15V31.3501Z" fill="black"/>
<path d="M18.15 34.6499H14.85V37.9499H18.15V34.6499Z" fill="black"/>
<path d="M18.15 44.5498H14.85V47.8498H18.15V44.5498Z" fill="black"/>
<path d="M18.15 54.4497H14.85V57.7497H18.15V54.4497Z" fill="black"/>
<path d="M18.15 67.6499H14.85V70.9499H18.15V67.6499Z" fill="black"/>
<path d="M21.45 28.0498H18.15V31.3498H21.45V28.0498Z" fill="black"/>
<path d="M21.45 44.5498H18.15V47.8498H21.45V44.5498Z" fill="black"/>
<path d="M21.45 51.1499H18.15V54.4499H21.45V51.1499Z" fill="black"/>
<path d="M21.45 54.4497H18.15V57.7497H21.45V54.4497Z" fill="black"/>
<path d="M21.45 64.3501H18.15V67.6501H21.45V64.3501Z" fill="black"/>
<path d="M24.75 28.0498H21.45V31.3498H24.75V28.0498Z" fill="black"/>
<path d="M24.75 34.6499H21.45V37.9499H24.75V34.6499Z" fill="black"/>
<path d="M24.75 41.25H21.45V44.55H24.75V41.25Z" fill="black"/>
<path d="M24.75 47.8501H21.45V51.1501H24.75V47.8501Z" fill="black"/>
<path d="M24.75 54.4497H21.45V57.7497H24.75V54.4497Z" fill="black"/>
<path d="M24.75 61.0498H21.45V64.3498H24.75V61.0498Z" fill="black"/>
<path d="M24.75 67.6499H21.45V70.9499H24.75V67.6499Z" fill="black"/>
<path d="M28.05 28.0498H24.75V31.3498H28.05V28.0498Z" fill="black"/>
<path d="M28.05 31.3501H24.75V34.6501H28.05V31.3501Z" fill="black"/>
<path d="M28.05 41.25H24.75V44.55H28.05V41.25Z" fill="black"/>
<path d="M28.05 44.5498H24.75V47.8498H28.05V44.5498Z" fill="black"/>
<path d="M28.05 57.75H24.75V61.05H28.05V57.75Z" fill="black"/>
<path d="M28.05 61.0498H24.75V64.3498H28.05V61.0498Z" fill="black"/>
<path d="M28.05 67.6499H24.75V70.9499H28.05V67.6499Z" fill="black"/>
<path d="M31.35 4.94971H28.05V8.24971H31.35V4.94971Z" fill="black"/>
<path d="M31.35 11.5498H28.05V14.8498H31.35V11.5498Z" fill="black"/>
<path d="M31.35 18.1499H28.05V21.4499H31.35V18.1499Z" fill="black"/>
<path d="M31.35 21.4497H28.05V24.7497H31.35V21.4497Z" fill="black"/>
<path d="M31.35 24.75H28.05V28.05H31.35V24.75Z" fill="black"/>
<path d="M31.35 28.0498H28.05V31.3498H31.35V28.0498Z" fill="black"/>
<path d="M31.35 37.9497H28.05V41.2497H31.35V37.9497Z" fill="black"/>
<path d="M31.35 57.75H28.05V61.05H31.35V57.75Z" fill="black"/>
<path d="M31.35 61.0498H28.05V64.3498H31.35V61.0498Z" fill="black"/>
<path d="M31.35 70.9497H28.05V74.2497H31.35V70.9497Z" fill="black"/>
<path d="M31.35 74.25H28.05V77.55H31.35V74.25Z" fill="black"/>
<path d="M31.35 77.5498H28.05V80.8498H31.35V77.5498Z" fill="black"/>
<path d="M31.35 84.1499H28.05V87.4499H31.35V84.1499Z" fill="black"/>
<path d="M31.35 87.4497H28.05V90.7497H31.35V87.4497Z" fill="black"/>
<path d="M31.35 94.0498H28.05V97.3498H31.35V94.0498Z" fill="black"/>
<path d="M34.65 1.6499H31.35V4.9499H34.65V1.6499Z" fill="black"/>
<path d="M34.65 4.94971H31.35V8.24971H34.65V4.94971Z" fill="black"/>
<path d="M34.65 14.8501H31.35V18.1501H34.65V14.8501Z" fill="black"/>
<path d="M34.65 18.1499H31.35V21.4499H34.65V18.1499Z" fill="black"/>
<path d="M34.65 24.75H31.35V28.05H34.65V24.75Z" fill="black"/>
<path d="M34.65 28.0498H31.35V31.3498H34.65V28.0498Z" fill="black"/>
<path d="M34.65 34.6499H31.35V37.9499H34.65V34.6499Z" fill="black"/>
<path d="M34.65 37.9497H31.35V41.2497H34.65V37.9497Z" fill="black"/>
<path d="M34.65 44.5498H31.35V47.8498H34.65V44.5498Z" fill="black"/>
<path d="M34.65 47.8501H31.35V51.1501H34.65V47.8501Z" fill="black"/>
<path d="M34.65 51.1499H31.35V54.4499H34.65V51.1499Z" fill="black"/>
<path d="M34.65 54.4497H31.35V57.7497H34.65V54.4497Z" fill="black"/>
<path d="M34.65 57.75H31.35V61.05H34.65V57.75Z" fill="black"/>
<path d="M34.65 61.0498H31.35V64.3498H34.65V61.0498Z" fill="black"/>
<path d="M34.65 64.3501H31.35V67.6501H34.65V64.3501Z" fill="black"/>
<path d="M34.65 70.9497H31.35V74.2497H34.65V70.9497Z" fill="black"/>
<path d="M34.65 87.4497H31.35V90.7497H34.65V87.4497Z" fill="black"/>
<path d="M34.65 94.0498H31.35V97.3498H34.65V94.0498Z" fill="black"/>
<path d="M37.95 8.25H34.65V11.55H37.95V8.25Z" fill="black"/>
<path d="M37.95 11.5498H34.65V14.8498H37.95V11.5498Z" fill="black"/>
<path d="M37.95 18.1499H34.65V21.4499H37.95V18.1499Z" fill="black"/>
<path d="M37.95 21.4497H34.65V24.7497H37.95V21.4497Z" fill="black"/>
<path d="M37.95 24.75H34.65V28.05H37.95V24.75Z" fill="black"/>
<path d="M37.95 34.6499H34.65V37.9499H37.95V34.6499Z" fill="black"/>
<path d="M37.95 37.9497H34.65V41.2497H37.95V37.9497Z" fill="black"/>
<path d="M37.95 54.4497H34.65V57.7497H37.95V54.4497Z" fill="black"/>
<path d="M37.95 61.0498H34.65V64.3498H37.95V61.0498Z" fill="black"/>
<path d="M37.95 64.3501H34.65V67.6501H37.95V64.3501Z" fill="black"/>
<path d="M37.95 74.25H34.65V77.55H37.95V74.25Z" fill="black"/>
<path d="M37.95 77.5498H34.65V80.8498H37.95V77.5498Z" fill="black"/>
<path d="M37.95 90.75H34.65V94.05H37.95V90.75Z" fill="black"/>
<path d="M41.25 8.25H37.95V11.55H41.25V8.25Z" fill="black"/>
<path d="M41.25 28.0498H37.95V31.3498H41.25V28.0498Z" fill="black"/>
<path d="M41.25 31.3501H37.95V34.6501H41.25V31.3501Z" fill="black"/>
<path d="M41.25 34.6499H37.95V37.9499H41.25V34.6499Z" fill="black"/>
<path d="M41.25 47.8501H37.95V51.1501H41.25V47.8501Z" fill="black"/>
<path d="M41.25 51.1499H37.95V54.4499H41.25V51.1499Z" fill="black"/>
<path d="M41.25 54.4497H37.95V57.7497H41.25V54.4497Z" fill="black"/>
<path d="M41.25 61.0498H37.95V64.3498H41.25V61.0498Z" fill="black"/>
<path d="M41.25 64.3501H37.95V67.6501H41.25V64.3501Z" fill="black"/>
<path d="M41.25 67.6499H37.95V70.9499H41.25V67.6499Z" fill="black"/>
<path d="M41.25 70.9497H37.95V74.2497H41.25V70.9497Z" fill="black"/>
<path d="M41.25 74.25H37.95V77.55H41.25V74.25Z" fill="black"/>
<path d="M41.25 87.4497H37.95V90.7497H41.25V87.4497Z" fill="black"/>
<path d="M41.25 90.75H37.95V94.05H41.25V90.75Z" fill="black"/>
<path d="M44.55 4.94971H41.25V8.24971H44.55V4.94971Z" fill="black"/>
<path d="M44.55 21.4497H41.25V24.7497H44.55V21.4497Z" fill="black"/>
<path d="M44.55 28.0498H41.25V31.3498H44.55V28.0498Z" fill="black"/>
<path d="M44.55 34.6499H41.25V37.9499H44.55V34.6499Z" fill="black"/>
<path d="M44.55 37.9497H41.25V41.2497H44.55V37.9497Z" fill="black"/>
<path d="M44.55 47.8501H41.25V51.1501H44.55V47.8501Z" fill="black"/>
<path d="M44.55 51.1499H41.25V54.4499H44.55V51.1499Z" fill="black"/>
<path d="M44.55 57.75H41.25V61.05H44.55V57.75Z" fill="black"/>
<path d="M44.55 67.6499H41.25V70.9499H44.55V67.6499Z" fill="black"/>
<path d="M44.55 74.25H41.25V77.55H44.55V74.25Z" fill="black"/>
<path d="M44.55 77.5498H41.25V80.8498H44.55V77.5498Z" fill="black"/>
<path d="M44.55 84.1499H41.25V87.4499H44.55V84.1499Z" fill="black"/>
<path d="M44.55 87.4497H41.25V90.7497H44.55V87.4497Z" fill="black"/>
<path d="M47.85 1.6499H44.55V4.9499H47.85V1.6499Z" fill="black"/>
<path d="M47.85 8.25H44.55V11.55H47.85V8.25Z" fill="black"/>
<path d="M47.85 11.5498H44.55V14.8498H47.85V11.5498Z" fill="black"/>
<path d="M47.85 34.6499H44.55V37.9499H47.85V34.6499Z" fill="black"/>
<path d="M47.85 37.9497H44.55V41.2497H47.85V37.9497Z" fill="black"/>
<path d="M47.85 41.25H44.55V44.55H47.85V41.25Z" fill="black"/>
<path d="M47.85 47.8501H44.55V51.1501H47.85V47.8501Z" fill="black"/>
<path d="M47.85 51.1499H44.55V54.4499H47.85V51.1499Z" fill="black"/>
<path d="M47.85 61.0498H44.55V64.3498H47.85V61.0498Z" fill="black"/>
<path d="M47.85 64.3501H44.55V67.6501H47.85V64.3501Z" fill="black"/>
<path d="M47.85 67.6499H44.55V70.9499H47.85V67.6499Z" fill="black"/>
<path d="M47.85 70.9497H44.55V74.2497H47.85V70.9497Z" fill="black"/>
<path d="M47.85 77.5498H44.55V80.8498H47.85V77.5498Z" fill="black"/>
<path d="M47.85 84.1499H44.55V87.4499H47.85V84.1499Z" fill="black"/>
<path d="M47.85 90.75H44.55V94.05H47.85V90.75Z" fill="black"/>
<path d="M51.15 4.94971H47.85V8.24971H51.15V4.94971Z" fill="black"/>
<path d="M51.15 8.25H47.85V11.55H51.15V8.25Z" fill="black"/>
<path d="M51.15 11.5498H47.85V14.8498H51.15V11.5498Z" fill="black"/>
<path d="M51.15 18.1499H47.85V21.4499H51.15V18.1499Z" fill="black"/>
<path d="M51.15 21.4497H47.85V24.7497H51.15V21.4497Z" fill="black"/>
<path d="M51.15 24.75H47.85V28.05H51.15V24.75Z" fill="black"/>
<path d="M51.15 28.0498H47.85V31.3498H51.15V28.0498Z" fill="black"/>
<path d="M51.15 34.6499H47.85V37.9499H51.15V34.6499Z" fill="black"/>
<path d="M51.15 41.25H47.85V44.55H51.15V41.25Z" fill="black"/>
<path d="M51.15 44.5498H47.85V47.8498H51.15V44.5498Z" fill="black"/>
<path d="M51.15 54.4497H47.85V57.7497H51.15V54.4497Z" fill="black"/>
<path d="M51.15 67.6499H47.85V70.9499H51.15V67.6499Z" fill="black"/>
<path d="M51.15 74.25H47.85V77.55H51.15V74.25Z" fill="black"/>
<path d="M51.15 94.0498H47.85V97.3498H51.15V94.0498Z" fill="black"/>
<path d="M54.45 1.6499H51.15V4.9499H54.45V1.6499Z" fill="black"/>
<path d="M54.45 18.1499H51.15V21.4499H54.45V18.1499Z" fill="black"/>
<path d="M54.45 28.0498H51.15V31.3498H54.45V28.0498Z" fill="black"/>
<path d="M54.45 31.3501H51.15V34.6501H54.45V31.3501Z" fill="black"/>
<path d="M54.45 34.6499H51.15V37.9499H54.45V34.6499Z" fill="black"/>
<path d="M54.45 37.9497H51.15V41.2497H54.45V37.9497Z" fill="black"/>
<path d="M54.45 44.5498H51.15V47.8498H54.45V44.5498Z" fill="black"/>
<path d="M54.45 47.8501H51.15V51.1501H54.45V47.8501Z" fill="black"/>
<path d="M54.45 64.3501H51.15V67.6501H54.45V64.3501Z" fill="black"/>
<path d="M54.45 67.6499H51.15V70.9499H54.45V67.6499Z" fill="black"/>
<path d="M54.45 77.5498H51.15V80.8498H54.45V77.5498Z" fill="black"/>
<path d="M57.75 1.6499H54.45V4.9499H57.75V1.6499Z" fill="black"/>
<path d="M57.75 8.25H54.45V11.55H57.75V8.25Z" fill="black"/>
<path d="M57.75 14.8501H54.45V18.1501H57.75V14.8501Z" fill="black"/>
<path d="M57.75 21.4497H54.45V24.7497H57.75V21.4497Z" fill="black"/>
<path d="M57.75 28.0498H54.45V31.3498H57.75V28.0498Z" fill="black"/>
<path d="M57.75 31.3501H54.45V34.6501H57.75V31.3501Z" fill="black"/>
<path d="M57.75 34.6499H54.45V37.9499H57.75V34.6499Z" fill="black"/>
<path d="M57.75 37.9497H54.45V41.2497H57.75V37.9497Z" fill="black"/>
<path d="M57.75 44.5498H54.45V47.8498H57.75V44.5498Z" fill="black"/>
<path d="M57.75 51.1499H54.45V54.4499H57.75V51.1499Z" fill="black"/>
<path d="M57.75 54.4497H54.45V57.7497H57.75V54.4497Z" fill="black"/>
<path d="M57.75 67.6499H54.45V70.9499H57.75V67.6499Z" fill="black"/>
<path d="M57.75 77.5498H54.45V80.8498H57.75V77.5498Z" fill="black"/>
<path d="M57.75 80.8501H54.45V84.1501H57.75V80.8501Z" fill="black"/>
<path d="M57.75 90.75H54.45V94.05H57.75V90.75Z" fill="black"/>
<path d="M57.75 94.0498H54.45V97.3498H57.75V94.0498Z" fill="black"/>
<path d="M61.05 11.5498H57.75V14.8498H61.05V11.5498Z" fill="black"/>
<path d="M61.05 14.8501H57.75V18.1501H61.05V14.8501Z" fill="black"/>
<path d="M61.05 28.0498H57.75V31.3498H61.05V28.0498Z" fill="black"/>
<path d="M61.05 31.3501H57.75V34.6501H61.05V31.3501Z" fill="black"/>
<path d="M61.05 37.9497H57.75V41.2497H61.05V37.9497Z" fill="black"/>
<path d="M61.05 44.5498H57.75V47.8498H61.05V44.5498Z" fill="black"/>
<path d="M61.05 51.1499H57.75V54.4499H61.05V51.1499Z" fill="black"/>
<path d="M61.05 74.25H57.75V77.55H61.05V74.25Z" fill="black"/>
<path d="M61.05 77.5498H57.75V80.8498H61.05V77.5498Z" fill="black"/>
<path d="M61.05 84.1499H57.75V87.4499H61.05V84.1499Z" fill="black"/>
<path d="M61.05 90.75H57.75V94.05H61.05V90.75Z" fill="black"/>
<path d="M61.05 94.0498H57.75V97.3498H61.05V94.0498Z" fill="black"/>
<path d="M64.35 1.6499H61.05V4.9499H64.35V1.6499Z" fill="black"/>
<path d="M64.35 8.25H61.05V11.55H64.35V8.25Z" fill="black"/>
<path d="M64.35 14.8501H61.05V18.1501H64.35V14.8501Z" fill="black"/>
<path d="M64.35 21.4497H61.05V24.7497H64.35V21.4497Z" fill="black"/>
<path d="M64.35 24.75H61.05V28.05H64.35V24.75Z" fill="black"/>
<path d="M64.35 31.3501H61.05V34.6501H64.35V31.3501Z" fill="black"/>
<path d="M64.35 44.5498H61.05V47.8498H64.35V44.5498Z" fill="black"/>
<path d="M64.35 47.8501H61.05V51.1501H64.35V47.8501Z" fill="black"/>
<path d="M64.35 57.75H61.05V61.05H64.35V57.75Z" fill="black"/>
<path d="M64.35 61.0498H61.05V64.3498H64.35V61.0498Z" fill="black"/>
<path d="M64.35 67.6499H61.05V70.9499H64.35V67.6499Z" fill="black"/>
<path d="M64.35 70.9497H61.05V74.2497H64.35V70.9497Z" fill="black"/>
<path d="M64.35 77.5498H61.05V80.8498H64.35V77.5498Z" fill="black"/>
<path d="M64.35 80.8501H61.05V84.1501H64.35V80.8501Z" fill="black"/>
<path d="M64.35 84.1499H61.05V87.4499H64.35V84.1499Z" fill="black"/>
<path d="M64.35 87.4497H61.05V90.7497H64.35V87.4497Z" fill="black"/>
<path d="M64.35 90.75H61.05V94.05H64.35V90.75Z" fill="black"/>
<path d="M64.35 94.0498H61.05V97.3498H64.35V94.0498Z" fill="black"/>
<path d="M67.65 8.25H64.35V11.55H67.65V8.25Z" fill="black"/>
<path d="M67.65 11.5498H64.35V14.8498H67.65V11.5498Z" fill="black"/>
<path d="M67.65 14.8501H64.35V18.1501H67.65V14.8501Z" fill="black"/>
<path d="M67.65 24.75H64.35V28.05H67.65V24.75Z" fill="black"/>
<path d="M67.65 28.0498H64.35V31.3498H67.65V28.0498Z" fill="black"/>
<path d="M67.65 37.9497H64.35V41.2497H67.65V37.9497Z" fill="black"/>
<path d="M67.65 44.5498H64.35V47.8498H67.65V44.5498Z" fill="black"/>
<path d="M67.65 51.1499H64.35V54.4499H67.65V51.1499Z" fill="black"/>
<path d="M67.65 54.4497H64.35V57.7497H67.65V54.4497Z" fill="black"/>
<path d="M67.65 57.75H64.35V61.05H67.65V57.75Z" fill="black"/>
<path d="M67.65 64.3501H64.35V67.6501H67.65V64.3501Z" fill="black"/>
<path d="M67.65 67.6499H64.35V70.9499H67.65V67.6499Z" fill="black"/>
<path d="M67.65 84.1499H64.35V87.4499H67.65V84.1499Z" fill="black"/>
<path d="M67.65 90.75H64.35V94.05H67.65V90.75Z" fill="black"/>
<path d="M70.95 1.6499H67.65V4.9499H70.95V1.6499Z" fill="black"/>
<path d="M70.95 21.4497H67.65V24.7497H70.95V21.4497Z" fill="black"/>
<path d="M70.95 28.0498H67.65V31.3498H70.95V28.0498Z" fill="black"/>
<path d="M70.95 37.9497H67.65V41.2497H70.95V37.9497Z" fill="black"/>
<path d="M70.95 41.25H67.65V44.55H70.95V41.25Z" fill="black"/>
<path d="M70.95 47.8501H67.65V51.1501H70.95V47.8501Z" fill="black"/>
<path d="M70.95 54.4497H67.65V57.7497H70.95V54.4497Z" fill="black"/>
<path d="M70.95 61.0498H67.65V64.3498H70.95V61.0498Z" fill="black"/>
<path d="M70.95 64.3501H67.65V67.6501H70.95V64.3501Z" fill="black"/>
<path d="M70.95 67.6499H67.65V70.9499H70.95V67.6499Z" fill="black"/>
<path d="M70.95 70.9497H67.65V74.2497H70.95V70.9497Z" fill="black"/>
<path d="M70.95 74.25H67.65V77.55H70.95V74.25Z" fill="black"/>
<path d="M70.95 77.5498H67.65V80.8498H70.95V77.5498Z" fill="black"/>
<path d="M70.95 80.8501H67.65V84.1501H70.95V80.8501Z" fill="black"/>
<path d="M70.95 84.1499H67.65V87.4499H70.95V84.1499Z" fill="black"/>
<path d="M70.95 87.4497H67.65V90.7497H70.95V87.4497Z" fill="black"/>
<path d="M74.25 28.0498H70.95V31.3498H74.25V28.0498Z" fill="black"/>
<path d="M74.25 31.3501H70.95V34.6501H74.25V31.3501Z" fill="black"/>
<path d="M74.25 34.6499H70.95V37.9499H74.25V34.6499Z" fill="black"/>
<path d="M74.25 37.9497H70.95V41.2497H74.25V37.9497Z" fill="black"/>
<path d="M74.25 44.5498H70.95V47.8498H74.25V44.5498Z" fill="black"/>
<path d="M74.25 54.4497H70.95V57.7497H74.25V54.4497Z" fill="black"/>
<path d="M74.25 57.75H70.95V61.05H74.25V57.75Z" fill="black"/>
<path d="M74.25 64.3501H70.95V67.6501H74.25V64.3501Z" fill="black"/>
<path d="M74.25 67.6499H70.95V70.9499H74.25V67.6499Z" fill="black"/>
<path d="M74.25 80.8501H70.95V84.1501H74.25V80.8501Z" fill="black"/>
<path d="M74.25 90.75H70.95V94.05H74.25V90.75Z" fill="black"/>
<path d="M74.25 94.0498H70.95V97.3498H74.25V94.0498Z" fill="black"/>
<path d="M77.55 28.0498H74.25V31.3498H77.55V28.0498Z" fill="black"/>
<path d="M77.55 54.4497H74.25V57.7497H77.55V54.4497Z" fill="black"/>
<path d="M77.55 61.0498H74.25V64.3498H77.55V61.0498Z" fill="black"/>
<path d="M77.55 67.6499H74.25V70.9499H77.55V67.6499Z" fill="black"/>
<path d="M77.55 74.25H74.25V77.55H77.55V74.25Z" fill="black"/>
<path d="M77.55 80.8501H74.25V84.1501H77.55V80.8501Z" fill="black"/>
<path d="M77.55 84.1499H74.25V87.4499H77.55V84.1499Z" fill="black"/>
<path d="M77.55 87.4497H74.25V90.7497H77.55V87.4497Z" fill="black"/>
<path d="M77.55 90.75H74.25V94.05H77.55V90.75Z" fill="black"/>
<path d="M80.85 28.0498H77.55V31.3498H80.85V28.0498Z" fill="black"/>
<path d="M80.85 34.6499H77.55V37.9499H80.85V34.6499Z" fill="black"/>
<path d="M80.85 41.25H77.55V44.55H80.85V41.25Z" fill="black"/>
<path d="M80.85 44.5498H77.55V47.8498H80.85V44.5498Z" fill="black"/>
<path d="M80.85 61.0498H77.55V64.3498H80.85V61.0498Z" fill="black"/>
<path d="M80.85 67.6499H77.55V70.9499H80.85V67.6499Z" fill="black"/>
<path d="M80.85 80.8501H77.55V84.1501H80.85V80.8501Z" fill="black"/>
<path d="M80.85 87.4497H77.55V90.7497H80.85V87.4497Z" fill="black"/>
<path d="M80.85 94.0498H77.55V97.3498H80.85V94.0498Z" fill="black"/>
<path d="M84.15 34.6499H80.85V37.9499H84.15V34.6499Z" fill="black"/>
<path d="M84.15 37.9497H80.85V41.2497H84.15V37.9497Z" fill="black"/>
<path d="M84.15 41.25H80.85V44.55H84.15V41.25Z" fill="black"/>
<path d="M84.15 44.5498H80.85V47.8498H84.15V44.5498Z" fill="black"/>
<path d="M84.15 47.8501H80.85V51.1501H84.15V47.8501Z" fill="black"/>
<path d="M84.15 54.4497H80.85V57.7497H84.15V54.4497Z" fill="black"/>
<path d="M84.15 61.0498H80.85V64.3498H84.15V61.0498Z" fill="black"/>
<path d="M84.15 67.6499H80.85V70.9499H84.15V67.6499Z" fill="black"/>
<path d="M84.15 70.9497H80.85V74.2497H84.15V70.9497Z" fill="black"/>
<path d="M84.15 74.25H80.85V77.55H84.15V74.25Z" fill="black"/>
<path d="M84.15 77.5498H80.85V80.8498H84.15V77.5498Z" fill="black"/>
<path d="M84.15 80.8501H80.85V84.1501H84.15V80.8501Z" fill="black"/>
<path d="M84.15 84.1499H80.85V87.4499H84.15V84.1499Z" fill="black"/>
<path d="M84.15 90.75H80.85V94.05H84.15V90.75Z" fill="black"/>
<path d="M87.45 28.0498H84.15V31.3498H87.45V28.0498Z" fill="black"/>
<path d="M87.45 31.3501H84.15V34.6501H87.45V31.3501Z" fill="black"/>
<path d="M87.45 41.25H84.15V44.55H87.45V41.25Z" fill="black"/>
<path d="M87.45 51.1499H84.15V54.4499H87.45V51.1499Z" fill="black"/>
<path d="M87.45 61.0498H84.15V64.3498H87.45V61.0498Z" fill="black"/>
<path d="M87.45 64.3501H84.15V67.6501H87.45V64.3501Z" fill="black"/>
<path d="M87.45 67.6499H84.15V70.9499H87.45V67.6499Z" fill="black"/>
<path d="M87.45 70.9497H84.15V74.2497H87.45V70.9497Z" fill="black"/>
<path d="M87.45 74.25H84.15V77.55H87.45V74.25Z" fill="black"/>
<path d="M87.45 80.8501H84.15V84.1501H87.45V80.8501Z" fill="black"/>
<path d="M87.45 94.0498H84.15V97.3498H87.45V94.0498Z" fill="black"/>
<path d="M90.75 31.3501H87.45V34.6501H90.75V31.3501Z" fill="black"/>
<path d="M90.75 34.6499H87.45V37.9499H90.75V34.6499Z" fill="black"/>
<path d="M90.75 41.25H87.45V44.55H90.75V41.25Z" fill="black"/>
<path d="M90.75 44.5498H87.45V47.8498H90.75V44.5498Z" fill="black"/>
<path d="M90.75 47.8501H87.45V51.1501H90.75V47.8501Z" fill="black"/>
<path d="M90.75 51.1499H87.45V54.4499H90.75V51.1499Z" fill="black"/>
<path d="M90.75 54.4497H87.45V57.7497H90.75V54.4497Z" fill="black"/>
<path d="M90.75 64.3501H87.45V67.6501H90.75V64.3501Z" fill="black"/>
<path d="M90.75 67.6499H87.45V70.9499H90.75V67.6499Z" fill="black"/>
<path d="M90.75 80.8501H87.45V84.1501H90.75V80.8501Z" fill="black"/>
<path d="M90.75 84.1499H87.45V87.4499H90.75V84.1499Z" fill="black"/>
<path d="M90.75 87.4497H87.45V90.7497H90.75V87.4497Z" fill="black"/>
<path d="M90.75 94.0498H87.45V97.3498H90.75V94.0498Z" fill="black"/>
<path d="M94.05 28.0498H90.75V31.3498H94.05V28.0498Z" fill="black"/>
<path d="M94.05 31.3501H90.75V34.6501H94.05V31.3501Z" fill="black"/>
<path d="M94.05 34.6499H90.75V37.9499H94.05V34.6499Z" fill="black"/>
<path d="M94.05 37.9497H90.75V41.2497H94.05V37.9497Z" fill="black"/>
<path d="M94.05 44.5498H90.75V47.8498H94.05V44.5498Z" fill="black"/>
<path d="M94.05 47.8501H90.75V51.1501H94.05V47.8501Z" fill="black"/>
<path d="M94.05 54.4497H90.75V57.7497H94.05V54.4497Z" fill="black"/>
<path d="M94.05 57.75H90.75V61.05H94.05V57.75Z" fill="black"/>
<path d="M94.05 64.3501H90.75V67.6501H94.05V64.3501Z" fill="black"/>
<path d="M94.05 67.6499H90.75V70.9499H94.05V67.6499Z" fill="black"/>
<path d="M94.05 70.9497H90.75V74.2497H94.05V70.9497Z" fill="black"/>
<path d="M94.05 77.5498H90.75V80.8498H94.05V77.5498Z" fill="black"/>
<path d="M94.05 84.1499H90.75V87.4499H94.05V84.1499Z" fill="black"/>
<path d="M94.05 90.75H90.75V94.05H94.05V90.75Z" fill="black"/>
<path d="M97.35 31.3501H94.05V34.6501H97.35V31.3501Z" fill="black"/>
<path d="M97.35 34.6499H94.05V37.9499H97.35V34.6499Z" fill="black"/>
<path d="M97.35 37.9497H94.05V41.2497H97.35V37.9497Z" fill="black"/>
<path d="M97.35 44.5498H94.05V47.8498H97.35V44.5498Z" fill="black"/>
<path d="M97.35 51.1499H94.05V54.4499H97.35V51.1499Z" fill="black"/>
<path d="M97.35 57.75H94.05V61.05H97.35V57.75Z" fill="black"/>
<path d="M97.35 67.6499H94.05V70.9499H97.35V67.6499Z" fill="black"/>
<path d="M97.35 74.25H94.05V77.55H97.35V74.25Z" fill="black"/>
<path d="M97.35 80.8501H94.05V84.1501H97.35V80.8501Z" fill="black"/>
<path d="M97.35 90.75H94.05V94.05H97.35V90.75Z" fill="black"/>
<path d="M4.94999 1.6499H1.64999V4.9499H4.94999V1.6499Z" fill="black"/>
<path d="M4.94999 4.94971H1.64999V8.24971H4.94999V4.94971Z" fill="black"/>
<path d="M4.94999 8.25H1.64999V11.55H4.94999V8.25Z" fill="black"/>
<path d="M4.94999 11.5498H1.64999V14.8498H4.94999V11.5498Z" fill="black"/>
<path d="M4.94999 14.8501H1.64999V18.1501H4.94999V14.8501Z" fill="black"/>
<path d="M4.94999 18.1499H1.64999V21.4499H4.94999V18.1499Z" fill="black"/>
<path d="M4.94999 21.4497H1.64999V24.7497H4.94999V21.4497Z" fill="black"/>
<path d="M8.24998 1.6499H4.94998V4.9499H8.24998V1.6499Z" fill="black"/>
<path d="M8.24998 21.4497H4.94998V24.7497H8.24998V21.4497Z" fill="black"/>
<path d="M11.55 1.6499H8.25V4.9499H11.55V1.6499Z" fill="black"/>
<path d="M11.55 21.4497H8.25V24.7497H11.55V21.4497Z" fill="black"/>
<path d="M14.85 1.6499H11.55V4.9499H14.85V1.6499Z" fill="black"/>
<path d="M14.85 21.4497H11.55V24.7497H14.85V21.4497Z" fill="black"/>
<path d="M18.15 1.6499H14.85V4.9499H18.15V1.6499Z" fill="black"/>
<path d="M18.15 21.4497H14.85V24.7497H18.15V21.4497Z" fill="black"/>
<path d="M21.45 1.6499H18.15V4.9499H21.45V1.6499Z" fill="black"/>
<path d="M21.45 21.4497H18.15V24.7497H21.45V21.4497Z" fill="black"/>
<path d="M24.75 1.6499H21.45V4.9499H24.75V1.6499Z" fill="black"/>
<path d="M24.75 4.94971H21.45V8.24971H24.75V4.94971Z" fill="black"/>
<path d="M24.75 8.25H21.45V11.55H24.75V8.25Z" fill="black"/>
<path d="M24.75 11.5498H21.45V14.8498H24.75V11.5498Z" fill="black"/>
<path d="M24.75 14.8501H21.45V18.1501H24.75V14.8501Z" fill="black"/>
<path d="M24.75 18.1499H21.45V21.4499H24.75V18.1499Z" fill="black"/>
<path d="M24.75 21.4497H21.45V24.7497H24.75V21.4497Z" fill="black"/>
<path d="M11.55 8.25H8.25V11.55H11.55V8.25Z" fill="black"/>
<path d="M11.55 11.5498H8.25V14.8498H11.55V11.5498Z" fill="black"/>
<path d="M11.55 14.8501H8.25V18.1501H11.55V14.8501Z" fill="black"/>
<path d="M14.85 8.25H11.55V11.55H14.85V8.25Z" fill="black"/>
<path d="M14.85 11.5498H11.55V14.8498H14.85V11.5498Z" fill="black"/>
<path d="M14.85 14.8501H11.55V18.1501H14.85V14.8501Z" fill="black"/>
<path d="M18.15 8.25H14.85V11.55H18.15V8.25Z" fill="black"/>
<path d="M18.15 11.5498H14.85V14.8498H18.15V11.5498Z" fill="black"/>
<path d="M18.15 14.8501H14.85V18.1501H18.15V14.8501Z" fill="black"/>
<path d="M77.55 1.6499H74.25V4.9499H77.55V1.6499Z" fill="black"/>
<path d="M77.55 4.94971H74.25V8.24971H77.55V4.94971Z" fill="black"/>
<path d="M77.55 8.25H74.25V11.55H77.55V8.25Z" fill="black"/>
<path d="M77.55 11.5498H74.25V14.8498H77.55V11.5498Z" fill="black"/>
<path d="M77.55 14.8501H74.25V18.1501H77.55V14.8501Z" fill="black"/>
<path d="M77.55 18.1499H74.25V21.4499H77.55V18.1499Z" fill="black"/>
<path d="M77.55 21.4497H74.25V24.7497H77.55V21.4497Z" fill="black"/>
<path d="M80.85 1.6499H77.55V4.9499H80.85V1.6499Z" fill="black"/>
<path d="M80.85 21.4497H77.55V24.7497H80.85V21.4497Z" fill="black"/>
<path d="M84.15 1.6499H80.85V4.9499H84.15V1.6499Z" fill="black"/>
<path d="M84.15 21.4497H80.85V24.7497H84.15V21.4497Z" fill="black"/>
<path d="M87.45 1.6499H84.15V4.9499H87.45V1.6499Z" fill="black"/>
<path d="M87.45 21.4497H84.15V24.7497H87.45V21.4497Z" fill="black"/>
<path d="M90.75 1.6499H87.45V4.9499H90.75V1.6499Z" fill="black"/>
<path d="M90.75 21.4497H87.45V24.7497H90.75V21.4497Z" fill="black"/>
<path d="M94.05 1.6499H90.75V4.9499H94.05V1.6499Z" fill="black"/>
<path d="M94.05 21.4497H90.75V24.7497H94.05V21.4497Z" fill="black"/>
<path d="M97.35 1.6499H94.05V4.9499H97.35V1.6499Z" fill="black"/>
<path d="M97.35 4.94971H94.05V8.24971H97.35V4.94971Z" fill="black"/>
<path d="M97.35 8.25H94.05V11.55H97.35V8.25Z" fill="black"/>
<path d="M97.35 11.5498H94.05V14.8498H97.35V11.5498Z" fill="black"/>
<path d="M97.35 14.8501H94.05V18.1501H97.35V14.8501Z" fill="black"/>
<path d="M97.35 18.1499H94.05V21.4499H97.35V18.1499Z" fill="black"/>
<path d="M97.35 21.4497H94.05V24.7497H97.35V21.4497Z" fill="black"/>
<path d="M84.15 8.25H80.85V11.55H84.15V8.25Z" fill="black"/>
<path d="M84.15 11.5498H80.85V14.8498H84.15V11.5498Z" fill="black"/>
<path d="M84.15 14.8501H80.85V18.1501H84.15V14.8501Z" fill="black"/>
<path d="M87.45 8.25H84.15V11.55H87.45V8.25Z" fill="black"/>
<path d="M87.45 11.5498H84.15V14.8498H87.45V11.5498Z" fill="black"/>
<path d="M87.45 14.8501H84.15V18.1501H87.45V14.8501Z" fill="black"/>
<path d="M90.75 8.25H87.45V11.55H90.75V8.25Z" fill="black"/>
<path d="M90.75 11.5498H87.45V14.8498H90.75V11.5498Z" fill="black"/>
<path d="M90.75 14.8501H87.45V18.1501H90.75V14.8501Z" fill="black"/>
<path d="M4.94999 74.25H1.64999V77.55H4.94999V74.25Z" fill="black"/>
<path d="M4.94999 77.5498H1.64999V80.8498H4.94999V77.5498Z" fill="black"/>
<path d="M4.94999 80.8501H1.64999V84.1501H4.94999V80.8501Z" fill="black"/>
<path d="M4.94999 84.1499H1.64999V87.4499H4.94999V84.1499Z" fill="black"/>
<path d="M4.94999 87.4502H1.64999V90.7502H4.94999V87.4502Z" fill="black"/>
<path d="M4.94999 90.75H1.64999V94.05H4.94999V90.75Z" fill="black"/>
<path d="M4.94999 94.0498H1.64999V97.3498H4.94999V94.0498Z" fill="black"/>
<path d="M8.24998 74.25H4.94998V77.55H8.24998V74.25Z" fill="black"/>
<path d="M8.24998 94.0498H4.94998V97.3498H8.24998V94.0498Z" fill="black"/>
<path d="M11.55 74.25H8.25V77.55H11.55V74.25Z" fill="black"/>
<path d="M11.55 94.0498H8.25V97.3498H11.55V94.0498Z" fill="black"/>
<path d="M14.85 74.25H11.55V77.55H14.85V74.25Z" fill="black"/>
<path d="M14.85 94.0498H11.55V97.3498H14.85V94.0498Z" fill="black"/>
<path d="M18.15 74.25H14.85V77.55H18.15V74.25Z" fill="black"/>
<path d="M18.15 94.0498H14.85V97.3498H18.15V94.0498Z" fill="black"/>
<path d="M21.45 74.25H18.15V77.55H21.45V74.25Z" fill="black"/>
<path d="M21.45 94.0498H18.15V97.3498H21.45V94.0498Z" fill="black"/>
<path d="M24.75 74.25H21.45V77.55H24.75V74.25Z" fill="black"/>
<path d="M24.75 77.5498H21.45V80.8498H24.75V77.5498Z" fill="black"/>
<path d="M24.75 80.8501H21.45V84.1501H24.75V80.8501Z" fill="black"/>
<path d="M24.75 84.1499H21.45V87.4499H24.75V84.1499Z" fill="black"/>
<path d="M24.75 87.4502H21.45V90.7502H24.75V87.4502Z" fill="black"/>
<path d="M24.75 90.75H21.45V94.05H24.75V90.75Z" fill="black"/>
<path d="M24.75 94.0498H21.45V97.3498H24.75V94.0498Z" fill="black"/>
<path d="M11.55 80.8501H8.25V84.1501H11.55V80.8501Z" fill="black"/>
<path d="M11.55 84.1499H8.25V87.4499H11.55V84.1499Z" fill="black"/>
<path d="M11.55 87.4502H8.25V90.7502H11.55V87.4502Z" fill="black"/>
<path d="M14.85 80.8501H11.55V84.1501H14.85V80.8501Z" fill="black"/>
<path d="M14.85 84.1499H11.55V87.4499H14.85V84.1499Z" fill="black"/>
<path d="M14.85 87.4502H11.55V90.7502H14.85V87.4502Z" fill="black"/>
<path d="M18.15 80.8501H14.85V84.1501H18.15V80.8501Z" fill="black"/>
<path d="M18.15 84.1499H14.85V87.4499H18.15V84.1499Z" fill="black"/>
<path d="M18.15 87.4502H14.85V90.7502H18.15V87.4502Z" fill="black"/>
</svg>
