<svg width="788" height="750" viewBox="0 0 788 750" fill="none" xmlns="http://www.w3.org/2000/svg">
<path d="M787 1H1V749H787V1Z" stroke="#748738" stroke-width="2" stroke-miterlimit="10"/>
<path d="M706.584 377.533H673.584V396.533H706.584V377.533Z" fill="#748738"/>
<path d="M627.005 348.165C626.079 347.885 625.378 347.521 624.846 347.044L625.659 345.222C626.192 345.643 626.808 345.979 627.566 346.231C628.323 346.484 629.08 346.624 629.837 346.624C630.79 346.624 631.491 346.484 631.94 346.175C632.416 345.867 632.641 345.475 632.641 344.97C632.641 344.606 632.5 344.298 632.248 344.073C631.996 343.849 631.659 343.653 631.267 343.513C630.874 343.373 630.313 343.233 629.64 343.064C628.687 342.84 627.902 342.616 627.285 342.364C626.668 342.112 626.164 341.775 625.743 341.299C625.322 340.822 625.098 340.15 625.098 339.309C625.098 338.608 625.294 337.964 625.659 337.403C626.051 336.815 626.612 336.366 627.397 336.03C628.154 335.694 629.108 335.525 630.229 335.525C631.014 335.525 631.771 335.609 632.529 335.806C633.286 336.002 633.931 336.282 634.463 336.646L633.706 338.468C633.145 338.132 632.557 337.88 631.968 337.711C631.379 337.543 630.79 337.459 630.201 337.459C629.276 337.459 628.575 337.627 628.126 337.936C627.678 338.244 627.453 338.664 627.453 339.197C627.453 339.561 627.594 339.869 627.846 340.094C628.098 340.318 628.435 340.514 628.827 340.626C629.22 340.766 629.781 340.906 630.454 341.075C631.407 341.299 632.164 341.523 632.781 341.747C633.398 341.971 633.902 342.336 634.323 342.84C634.744 343.345 634.968 343.989 634.968 344.802C634.968 345.503 634.772 346.147 634.407 346.708C634.015 347.268 633.454 347.745 632.669 348.081C631.884 348.417 630.958 348.586 629.837 348.586C628.883 348.586 627.93 348.445 627.005 348.165Z" fill="#748738"/>
<path d="M644.474 339.617C645.231 340.29 645.595 341.327 645.595 342.7V348.389H643.464V347.212C643.184 347.633 642.791 347.969 642.287 348.193C641.782 348.417 641.165 348.53 640.436 348.53C639.707 348.53 639.062 348.417 638.529 348.165C637.997 347.913 637.576 347.577 637.267 347.128C636.959 346.68 636.819 346.203 636.819 345.643C636.819 344.774 637.155 344.073 637.8 343.541C638.445 343.008 639.455 342.756 640.857 342.756H643.352V342.616C643.352 341.943 643.156 341.411 642.735 341.047C642.343 340.682 641.726 340.514 640.941 340.514C640.408 340.514 639.875 340.598 639.342 340.766C638.81 340.934 638.361 341.159 637.996 341.467L637.099 339.813C637.604 339.421 638.221 339.141 638.922 338.917C639.623 338.72 640.38 338.608 641.193 338.608C642.623 338.608 643.717 338.945 644.474 339.617ZM642.988 337.375L641.389 336.03L639.791 337.375H637.912L640.352 334.881H642.427L644.866 337.375H642.988ZM642.399 346.484C642.847 346.231 643.156 345.839 643.324 345.363V344.242H640.997C639.679 344.242 639.034 344.662 639.034 345.531C639.034 345.951 639.202 346.259 639.539 346.512C639.875 346.764 640.324 346.876 640.913 346.876C641.445 346.876 641.95 346.736 642.399 346.484Z" fill="#748738"/>
<path d="M657.315 339.673C658.044 340.374 658.437 341.439 658.437 342.84V348.389H656.166V343.121C656.166 342.28 655.969 341.635 655.577 341.215C655.184 340.794 654.596 340.57 653.867 340.57C653.025 340.57 652.38 340.822 651.876 341.327C651.399 341.831 651.147 342.56 651.147 343.485V348.389H648.875V338.692H651.034V339.954C651.399 339.505 651.876 339.169 652.436 338.945C652.997 338.72 653.642 338.608 654.371 338.608C655.577 338.608 656.558 338.945 657.315 339.673Z" fill="#748738"/>
<path d="M676.13 338.721L671.98 348.418H669.625L665.475 338.721H667.83L670.859 345.895L673.971 338.721H676.13Z" fill="#748738"/>
<path d="M684.57 339.617C685.327 340.29 685.691 341.327 685.691 342.7V348.389H683.56V347.212C683.28 347.633 682.887 347.969 682.383 348.193C681.878 348.417 681.261 348.53 680.532 348.53C679.803 348.53 679.158 348.417 678.625 348.165C678.093 347.913 677.672 347.577 677.364 347.128C677.055 346.68 676.915 346.203 676.915 345.643C676.915 344.774 677.251 344.073 677.896 343.541C678.541 343.008 679.551 342.756 680.953 342.756H683.448V342.616C683.448 341.943 683.252 341.411 682.831 341.047C682.439 340.682 681.822 340.514 681.037 340.514C680.504 340.514 679.971 340.598 679.439 340.766C678.906 340.934 678.457 341.159 678.093 341.467L677.195 339.813C677.7 339.421 678.317 339.141 679.018 338.917C679.719 338.72 680.476 338.608 681.289 338.608C682.719 338.608 683.813 338.945 684.57 339.617ZM683.084 337.375L681.485 336.03L679.887 337.375H678.009L680.448 334.881H682.523L684.962 337.375H683.084ZM682.495 346.484C682.943 346.231 683.252 345.839 683.42 345.363V344.242H681.093C679.775 344.242 679.13 344.662 679.13 345.531C679.13 345.951 679.298 346.259 679.635 346.512C679.971 346.764 680.42 346.876 681.009 346.876C681.57 346.876 682.046 346.736 682.495 346.484ZM680.616 351.809C680.42 351.612 680.308 351.36 680.308 351.024C680.308 350.716 680.42 350.435 680.616 350.239C680.813 350.015 681.093 349.931 681.401 349.931C681.71 349.931 681.99 350.043 682.186 350.239C682.383 350.463 682.495 350.716 682.495 351.024C682.495 351.36 682.383 351.612 682.186 351.809C681.99 352.005 681.71 352.089 681.401 352.089C681.093 352.089 680.813 352.005 680.616 351.809Z" fill="#748738"/>
<path d="M697.412 339.673C698.141 340.374 698.534 341.439 698.534 342.84V348.389H696.262V343.121C696.262 342.28 696.066 341.635 695.674 341.215C695.281 340.794 694.692 340.57 693.963 340.57C693.122 340.57 692.477 340.822 691.972 341.327C691.496 341.831 691.243 342.56 691.243 343.485V348.389H688.972V338.692H691.131V339.954C691.496 339.505 691.972 339.169 692.533 338.945C693.094 338.72 693.739 338.608 694.468 338.608C695.702 338.608 696.683 338.945 697.412 339.673Z" fill="#748738"/>
<path d="M710.787 336.086H718.133V337.571H710.787V336.086ZM716.647 334.937V348.417H714.46V347.156C714.095 347.604 713.619 347.969 713.058 348.193C712.497 348.417 711.908 348.529 711.235 348.529C710.31 348.529 709.469 348.333 708.712 347.913C707.955 347.492 707.394 346.904 706.945 346.147C706.497 345.39 706.3 344.521 706.3 343.54C706.3 342.56 706.525 341.691 706.945 340.934C707.366 340.177 707.955 339.617 708.712 339.196C709.469 338.776 710.282 338.58 711.235 338.58C711.88 338.58 712.469 338.692 713.002 338.916C713.534 339.14 713.983 339.449 714.376 339.897V334.937H716.647ZM713.002 346.203C713.45 345.951 713.787 345.614 714.039 345.138C714.292 344.662 714.432 344.157 714.432 343.54C714.432 342.924 714.32 342.391 714.039 341.943C713.759 341.495 713.45 341.13 713.002 340.878C712.553 340.626 712.076 340.514 711.544 340.514C711.011 340.514 710.506 340.626 710.086 340.878C709.665 341.13 709.301 341.467 709.048 341.943C708.796 342.419 708.656 342.924 708.656 343.54C708.656 344.157 708.768 344.69 709.048 345.138C709.329 345.586 709.637 345.951 710.086 346.203C710.534 346.455 711.011 346.567 711.544 346.567C712.076 346.567 712.553 346.455 713.002 346.203Z" fill="#748738"/>
<path d="M721.694 347.885C720.909 347.465 720.292 346.876 719.843 346.119C719.395 345.363 719.17 344.494 719.17 343.541C719.17 342.588 719.395 341.747 719.843 340.991C720.292 340.234 720.909 339.645 721.694 339.225C722.479 338.805 723.376 338.58 724.358 338.58C725.339 338.58 726.236 338.805 727.021 339.225C727.807 339.645 728.423 340.234 728.872 340.991C729.321 341.747 729.545 342.588 729.545 343.541C729.545 344.494 729.321 345.363 728.872 346.119C728.423 346.876 727.807 347.465 727.021 347.885C726.236 348.305 725.339 348.53 724.358 348.53C723.376 348.53 722.479 348.305 721.694 347.885ZM725.928 337.375L724.33 336.03L722.731 337.375H720.853L723.292 334.881H725.367L727.807 337.375H725.928ZM726.405 345.755C726.937 345.194 727.218 344.466 727.218 343.569C727.218 342.672 726.937 341.943 726.405 341.383C725.872 340.822 725.171 340.542 724.33 340.542C723.488 340.542 722.816 340.822 722.283 341.383C721.75 341.943 721.47 342.672 721.47 343.569C721.47 344.466 721.75 345.222 722.283 345.755C722.816 346.315 723.517 346.596 724.33 346.596C725.143 346.596 725.872 346.315 726.405 345.755ZM723.545 351.809C723.348 351.612 723.236 351.36 723.236 351.024C723.236 350.716 723.348 350.435 723.545 350.239C723.741 350.015 724.021 349.931 724.33 349.931C724.638 349.931 724.918 350.043 725.115 350.239C725.311 350.463 725.423 350.716 725.423 351.024C725.423 351.36 725.311 351.612 725.115 351.809C724.918 352.005 724.638 352.089 724.33 352.089C724.021 352.089 723.741 352.005 723.545 351.809Z" fill="#748738"/>
<path d="M740.508 339.673C741.237 340.374 741.63 341.439 741.63 342.84V348.389H739.359V343.121C739.359 342.28 739.162 341.635 738.77 341.215C738.377 340.794 737.788 340.57 737.059 340.57C736.218 340.57 735.573 340.822 735.069 341.327C734.592 341.831 734.34 342.56 734.34 343.485V348.389H732.068V338.692H734.227V339.954C734.592 339.505 735.069 339.169 735.629 338.945C736.19 338.72 736.835 338.608 737.564 338.608C738.798 338.608 739.779 338.945 740.508 339.673Z" fill="#748738"/>
<path d="M754.584 338.72V346.932C754.584 350.351 752.846 352.06 749.369 352.06C748.444 352.06 747.547 351.948 746.705 351.696C745.864 351.472 745.191 351.107 744.63 350.659L745.64 348.949C746.06 349.314 746.593 349.594 747.238 349.79C747.883 350.014 748.528 350.098 749.201 350.098C750.266 350.098 751.051 349.846 751.556 349.37C752.061 348.893 752.313 348.137 752.313 347.156V346.651C751.921 347.072 751.444 347.408 750.883 347.604C750.322 347.828 749.706 347.94 749.061 347.94C748.135 347.94 747.322 347.744 746.565 347.352C745.808 346.96 745.219 346.399 744.799 345.698C744.378 344.998 744.154 344.157 744.154 343.232C744.154 342.307 744.378 341.494 744.799 340.794C745.219 340.093 745.808 339.533 746.565 339.14C747.322 338.748 748.135 338.552 749.061 338.552C749.762 338.552 750.407 338.664 750.967 338.888C751.528 339.112 752.033 339.477 752.397 339.953V338.664H754.584V338.72ZM751.528 345.278C752.089 344.774 752.341 344.101 752.341 343.26C752.341 342.447 752.061 341.803 751.528 341.27C750.967 340.766 750.266 340.514 749.425 340.514C748.556 340.514 747.855 340.766 747.294 341.27C746.733 341.775 746.481 342.447 746.481 343.26C746.481 344.073 746.761 344.745 747.294 345.278C747.827 345.81 748.556 346.063 749.425 346.063C750.266 346.035 750.967 345.782 751.528 345.278Z" fill="#748738"/>
<path d="M657.091 357.301H652.885V355.312H663.68V357.301H659.475V368.007H657.119V357.301H657.091Z" fill="#748738"/>
<path d="M672.064 359.235C672.821 359.908 673.186 360.945 673.186 362.318V368.008H671.055V366.83C670.774 367.251 670.382 367.587 669.877 367.811C669.372 368.036 668.755 368.148 668.026 368.148C667.297 368.148 666.652 368.036 666.12 367.783C665.587 367.531 665.166 367.195 664.858 366.746C664.549 366.298 664.409 365.822 664.409 365.261C664.409 364.392 664.746 363.692 665.391 363.159C666.035 362.627 667.045 362.374 668.447 362.374H670.942V362.234C670.942 361.562 670.746 361.029 670.326 360.665C669.933 360.3 669.316 360.132 668.531 360.132C667.998 360.132 667.465 360.216 666.933 360.385C666.4 360.553 665.951 360.777 665.587 361.085L664.69 359.432C665.194 359.039 665.811 358.759 666.512 358.535C667.213 358.339 667.97 358.226 668.783 358.226C670.213 358.226 671.307 358.563 672.064 359.235ZM670.578 356.993L668.98 355.648L667.381 356.993H665.503L667.942 354.499H670.017L672.456 356.993H670.578ZM669.989 366.102C670.438 365.85 670.746 365.457 670.914 364.981V363.86H668.587C667.269 363.86 666.624 364.28 666.624 365.149C666.624 365.569 666.793 365.878 667.129 366.13C667.465 366.382 667.914 366.494 668.503 366.494C669.036 366.494 669.54 366.354 669.989 366.102Z" fill="#748738"/>
<path d="M684.906 359.292C685.635 359.992 686.028 361.057 686.028 362.458V368.008H683.757V362.739C683.757 361.898 683.56 361.253 683.168 360.833C682.775 360.413 682.186 360.188 681.457 360.188C680.616 360.188 679.971 360.441 679.467 360.945C678.99 361.45 678.737 362.178 678.737 363.103V368.008H676.466V358.311H678.625V359.572C678.99 359.123 679.467 358.787 680.027 358.563C680.588 358.339 681.233 358.227 681.962 358.227C683.196 358.227 684.149 358.563 684.906 359.292Z" fill="#748738"/>
<path d="M706.524 368.035L706.496 359.627L702.319 366.606H701.253L697.075 359.739V368.063H694.832V355.367H696.767L701.814 363.775L706.777 355.367H708.712L708.74 368.063H706.524V368.035Z" fill="#748738"/>
<path d="M719.311 359.236C720.068 359.908 720.432 360.945 720.432 362.318V368.008H718.301V366.831C718.021 367.251 717.628 367.587 717.123 367.811C716.619 368.036 716.002 368.148 715.273 368.148C714.544 368.148 713.899 368.036 713.366 367.783C712.833 367.531 712.413 367.195 712.104 366.746C711.796 366.298 711.656 365.822 711.656 365.261C711.656 364.392 711.992 363.692 712.637 363.159C713.282 362.627 714.291 362.374 715.693 362.374H718.189V362.234C718.189 361.562 717.993 361.029 717.572 360.665C717.18 360.3 716.563 360.132 715.778 360.132C715.245 360.132 714.712 360.216 714.179 360.385C713.647 360.553 713.198 360.777 712.833 361.085L711.936 359.432C712.441 359.039 713.058 358.759 713.759 358.535C714.46 358.339 715.217 358.227 716.03 358.227C717.46 358.227 718.553 358.563 719.311 359.236ZM717.264 366.102C717.712 365.85 718.021 365.457 718.189 364.981V363.86H715.862C714.544 363.86 713.899 364.28 713.899 365.149C713.899 365.569 714.067 365.878 714.404 366.13C714.74 366.382 715.189 366.494 715.778 366.494C716.31 366.494 716.815 366.354 717.264 366.102Z" fill="#748738"/>
<path d="M723.825 356.349C723.545 356.097 723.404 355.761 723.404 355.368C723.404 354.976 723.545 354.668 723.825 354.387C724.105 354.135 724.442 353.995 724.862 353.995C725.283 353.995 725.619 354.107 725.9 354.359C726.18 354.612 726.32 354.92 726.32 355.284C726.32 355.677 726.18 356.013 725.9 356.293C725.619 356.574 725.283 356.714 724.862 356.714C724.442 356.742 724.105 356.602 723.825 356.349ZM723.713 358.339H725.984V368.036H723.713V358.339Z" fill="#748738"/>
<path d="M487.2 131.777H482.994V129.787H493.789V131.777H489.583V142.483H487.228V131.777H487.2Z" fill="#748738"/>
<path d="M502.173 133.738C502.93 134.411 503.295 135.448 503.295 136.821V142.51H501.164V141.333C500.883 141.754 500.491 142.09 499.986 142.314C499.482 142.539 498.865 142.651 498.136 142.651C497.407 142.651 496.762 142.539 496.229 142.286C495.696 142.034 495.276 141.698 494.967 141.249C494.659 140.801 494.519 140.324 494.519 139.764C494.519 138.895 494.855 138.194 495.5 137.662C496.145 137.129 497.154 136.877 498.556 136.877H501.052V136.681C501.052 136.008 500.855 135.476 500.435 135.112C500.042 134.747 499.425 134.579 498.64 134.579C498.108 134.579 497.575 134.663 497.042 134.831C496.509 135 496.061 135.224 495.696 135.532L494.799 133.878C495.304 133.486 495.921 133.206 496.622 132.982C497.323 132.785 498.08 132.673 498.893 132.673C500.323 132.701 501.416 133.038 502.173 133.738ZM500.687 131.496L499.089 130.151L497.491 131.496H495.612L498.052 129.002H500.126L502.566 131.496H500.687ZM500.098 140.577C500.547 140.324 500.855 139.932 501.024 139.456V138.335H498.696C497.379 138.335 496.734 138.755 496.734 139.624C496.734 140.044 496.902 140.352 497.238 140.605C497.575 140.857 498.023 140.969 498.612 140.969C499.145 140.969 499.65 140.857 500.098 140.577Z" fill="#748738"/>
<path d="M515.015 133.765C515.744 134.466 516.137 135.531 516.137 136.932V142.481H513.865V137.24C513.865 136.399 513.669 135.755 513.277 135.334C512.884 134.914 512.295 134.69 511.566 134.69C510.725 134.69 510.08 134.942 509.575 135.447C509.099 135.951 508.846 136.68 508.846 137.605V142.509H506.575V132.812H508.734V134.073C509.099 133.625 509.575 133.289 510.136 133.064C510.697 132.84 511.342 132.728 512.071 132.728C513.277 132.7 514.258 133.064 515.015 133.765Z" fill="#748738"/>
<path d="M536.633 142.511L536.605 134.103L532.427 141.081H531.362L527.184 134.215V142.539H524.941V129.843H526.876L531.923 138.251L536.886 129.843H538.82L538.849 142.539H536.633V142.511Z" fill="#748738"/>
<path d="M549.419 133.738C550.177 134.41 550.541 135.447 550.541 136.821V142.51H548.41V141.333C548.13 141.753 547.737 142.09 547.232 142.314C546.728 142.538 546.111 142.65 545.382 142.65C544.653 142.65 544.008 142.538 543.475 142.286C542.942 142.034 542.522 141.697 542.213 141.249C541.905 140.8 541.765 140.324 541.765 139.763C541.765 138.895 542.101 138.194 542.746 137.661C543.391 137.129 544.4 136.877 545.802 136.877H548.298V136.681C548.298 136.008 548.102 135.475 547.681 135.111C547.288 134.747 546.672 134.579 545.886 134.579C545.354 134.579 544.821 134.663 544.288 134.831C543.755 134.999 543.307 135.223 542.942 135.531L542.045 133.878C542.55 133.486 543.167 133.205 543.868 132.981C544.569 132.785 545.326 132.673 546.139 132.673C547.569 132.701 548.662 133.037 549.419 133.738ZM547.345 140.576C547.793 140.324 548.102 139.932 548.27 139.455V138.334H545.943C544.625 138.334 543.98 138.755 543.98 139.623C543.98 140.044 544.148 140.352 544.484 140.604C544.821 140.856 545.27 140.969 545.858 140.969C546.419 140.969 546.924 140.856 547.345 140.576Z" fill="#748738"/>
<path d="M553.934 130.823C553.653 130.571 553.513 130.234 553.513 129.842C553.513 129.45 553.653 129.141 553.934 128.861C554.214 128.609 554.551 128.469 554.971 128.469C555.392 128.469 555.728 128.581 556.009 128.833C556.289 129.085 556.429 129.394 556.429 129.758C556.429 130.15 556.289 130.487 556.009 130.767C555.728 131.047 555.392 131.187 554.971 131.187C554.551 131.215 554.214 131.075 553.934 130.823ZM553.822 132.813H556.093V142.51H553.822V132.813Z" fill="#748738"/>
<path d="M122.519 137.185L120.5 139.259V142.51H118.145V129.814H120.5V136.344L126.781 129.814H129.444L124.117 135.504L129.781 142.538H127.033L122.519 137.185Z" fill="#748738"/>
<path d="M131.435 130.823C131.155 130.571 131.015 130.234 131.015 129.842C131.015 129.45 131.155 129.141 131.435 128.861C131.716 128.609 132.052 128.469 132.473 128.469C132.893 128.469 133.23 128.581 133.51 128.833C133.791 129.085 133.931 129.394 133.931 129.758C133.931 130.15 133.791 130.487 133.51 130.767C133.23 131.047 132.893 131.187 132.473 131.187C132.08 131.215 131.716 131.075 131.435 130.823ZM131.323 132.813H133.594V142.51H131.323V132.813Z" fill="#748738"/>
<path d="M152.1 133.766C152.801 134.467 153.166 135.532 153.166 136.961V142.51H150.895V137.241C150.895 136.401 150.699 135.756 150.334 135.336C149.969 134.915 149.409 134.691 148.708 134.691C147.951 134.691 147.334 134.943 146.885 135.448C146.437 135.952 146.184 136.653 146.184 137.606V142.51H143.913V137.241C143.913 136.401 143.717 135.756 143.352 135.336C142.988 134.915 142.427 134.691 141.726 134.691C140.941 134.691 140.324 134.943 139.875 135.448C139.427 135.952 139.202 136.653 139.202 137.606V142.51H136.931V132.813H139.09V134.046C139.455 133.598 139.903 133.29 140.464 133.037C141.025 132.785 141.614 132.701 142.287 132.701C143.016 132.701 143.661 132.841 144.221 133.122C144.782 133.402 145.231 133.794 145.567 134.327C145.96 133.822 146.493 133.43 147.109 133.15C147.726 132.869 148.427 132.729 149.184 132.729C150.418 132.701 151.371 133.066 152.1 133.766Z" fill="#748738"/>
<path d="M162.194 129.787H167.746C169.092 129.787 170.298 130.039 171.363 130.572C172.429 131.104 173.242 131.833 173.803 132.814C174.392 133.767 174.672 134.888 174.672 136.149C174.672 137.41 174.392 138.503 173.803 139.484C173.214 140.437 172.401 141.194 171.363 141.726C170.298 142.259 169.092 142.511 167.746 142.511H162.194V129.787ZM167.662 140.493C168.587 140.493 169.429 140.325 170.13 139.961C170.831 139.596 171.391 139.092 171.756 138.447C172.148 137.775 172.317 137.018 172.317 136.149C172.317 135.28 172.12 134.523 171.756 133.851C171.363 133.178 170.831 132.674 170.13 132.337C169.429 131.973 168.615 131.805 167.662 131.805H164.578V140.521H167.662V140.493ZM160.4 135.168H167.943V136.906H160.4V135.168Z" fill="#748738"/>
<path d="M179.046 141.978C178.261 141.557 177.644 140.969 177.195 140.212C176.747 139.455 176.522 138.587 176.522 137.634C176.522 136.681 176.747 135.84 177.195 135.083C177.644 134.327 178.261 133.738 179.046 133.318C179.831 132.897 180.728 132.673 181.71 132.673C182.691 132.673 183.588 132.897 184.374 133.318C185.159 133.738 185.775 134.327 186.224 135.083C186.673 135.84 186.897 136.681 186.897 137.634C186.897 138.587 186.673 139.455 186.224 140.212C185.775 140.969 185.159 141.557 184.374 141.978C183.588 142.398 182.691 142.622 181.71 142.622C180.728 142.622 179.831 142.426 179.046 141.978ZM181.99 127.685H184.43L186.505 129.815H184.766L181.99 127.685ZM183.28 131.496L181.71 130.487L180.14 131.496H178.261L180.7 129.562H182.747L185.187 131.496H183.28ZM183.785 139.848C184.317 139.287 184.598 138.559 184.598 137.662C184.598 136.765 184.317 136.036 183.785 135.476C183.252 134.915 182.551 134.635 181.71 134.635C180.869 134.635 180.196 134.915 179.663 135.476C179.13 136.036 178.85 136.765 178.85 137.662C178.85 138.559 179.13 139.315 179.663 139.848C180.196 140.408 180.897 140.689 181.71 140.689C182.523 140.689 183.224 140.408 183.785 139.848Z" fill="#748738"/>
<path d="M197.861 133.765C198.59 134.466 198.982 135.531 198.982 136.932V142.481H196.711V137.24C196.711 136.399 196.515 135.755 196.122 135.334C195.73 134.914 195.141 134.69 194.412 134.69C193.571 134.69 192.926 134.942 192.421 135.447C191.944 135.951 191.692 136.68 191.692 137.605V142.509H189.421V132.812H191.58V134.073C191.944 133.625 192.421 133.289 192.982 133.064C193.543 132.84 194.188 132.728 194.917 132.728C196.15 132.7 197.132 133.064 197.861 133.765Z" fill="#748738"/>
<path d="M211.937 132.813V141.024C211.937 144.443 210.198 146.153 206.721 146.153C205.796 146.153 204.899 146.041 204.057 145.789C203.216 145.565 202.543 145.2 201.983 144.752L202.992 143.042C203.413 143.407 203.945 143.687 204.59 143.883C205.235 144.107 205.88 144.191 206.553 144.191C207.618 144.191 208.404 143.939 208.908 143.463C209.413 142.986 209.665 142.229 209.665 141.249V140.744C209.273 141.164 208.796 141.501 208.235 141.697C207.675 141.921 207.058 142.033 206.413 142.033C205.487 142.033 204.674 141.837 203.917 141.445C203.16 141.052 202.571 140.492 202.151 139.791C201.73 139.091 201.506 138.25 201.506 137.325C201.506 136.4 201.73 135.587 202.151 134.887C202.571 134.186 203.16 133.625 203.917 133.233C204.674 132.841 205.487 132.645 206.413 132.645C207.114 132.645 207.759 132.757 208.319 132.981C208.88 133.205 209.385 133.569 209.749 134.046V132.757H211.937V132.813ZM208.88 139.371C209.441 138.866 209.693 138.194 209.693 137.353C209.693 136.54 209.413 135.896 208.88 135.363C208.319 134.859 207.618 134.606 206.777 134.606C205.908 134.606 205.207 134.859 204.646 135.363C204.085 135.868 203.833 136.54 203.833 137.353C203.833 138.166 204.114 138.838 204.646 139.371C205.179 139.903 205.908 140.156 206.777 140.156C207.618 140.127 208.319 139.875 208.88 139.371Z" fill="#748738"/>
<path d="M73.0012 403.068V400.826H78.0763C78.6091 401.471 79.0016 402.228 79.282 403.125C79.5624 403.993 79.7026 404.89 79.7026 405.815C79.7026 407.104 79.4222 408.281 78.8614 409.318C78.3006 410.355 77.5155 411.168 76.5342 411.756C75.5528 412.345 74.4312 412.653 73.1694 412.653C71.9076 412.653 70.8141 412.345 69.8047 411.756C68.8233 411.168 68.0382 410.355 67.4774 409.29C66.9166 408.253 66.6362 407.076 66.6362 405.759C66.6362 404.694 66.8045 403.713 67.169 402.844C67.5335 401.975 68.0382 401.247 68.7111 400.658L70.1692 402.144C69.2159 403.124 68.7111 404.274 68.7111 405.647C68.7111 406.544 68.9074 407.328 69.2719 408.029C69.6365 408.73 70.1692 409.262 70.8421 409.655C71.5151 410.047 72.3002 410.243 73.1694 410.243C74.0106 410.243 74.7677 410.047 75.4687 409.655C76.1416 409.262 76.6744 408.73 77.0669 408.029C77.4595 407.328 77.6557 406.544 77.6557 405.675C77.6557 404.694 77.4314 403.797 77.0108 403.068H73.0012Z" fill="#748738"/>
<path d="M69.8046 397.575V395.305H79.5063V397.575H69.8046ZM67.8138 397.463C67.5615 397.743 67.225 397.883 66.8324 397.883C66.4399 397.883 66.1314 397.743 65.851 397.463C65.5987 397.183 65.4585 396.846 65.4585 396.426C65.4585 396.006 65.5707 395.669 65.823 395.389C66.0754 395.109 66.3838 394.969 66.7483 394.969C67.1409 394.969 67.4773 395.109 67.7577 395.389C68.0381 395.669 68.1783 396.006 68.1783 396.426C68.2064 396.846 68.0942 397.183 67.8138 397.463Z" fill="#748738"/>
<path d="M70.7299 384.991C71.4028 384.234 72.4403 383.87 73.8142 383.87H79.5062V386H78.3286C78.7491 386.28 79.0856 386.673 79.3099 387.177C79.5343 387.682 79.6464 388.298 79.6464 389.027C79.6464 389.756 79.5343 390.4 79.2819 390.933C79.0295 391.465 78.6931 391.886 78.2444 392.194C77.7958 392.502 77.3191 392.642 76.7583 392.642C75.8891 392.642 75.1881 392.306 74.6554 391.661C74.1226 391.017 73.8703 390.008 73.8703 388.607V386.112H73.7301C73.0571 386.112 72.5244 386.308 72.1599 386.729C71.7954 387.121 71.6271 387.738 71.6271 388.522C71.6271 389.055 71.7112 389.587 71.8795 390.12C72.0477 390.652 72.272 391.101 72.5805 391.465L70.9261 392.362C70.5336 391.858 70.2532 391.241 70.0289 390.54C69.8326 389.84 69.7204 389.083 69.7204 388.27C69.6924 386.841 70.0569 385.748 70.7299 384.991ZM77.5995 387.065C77.3472 386.617 76.9546 386.308 76.478 386.14H75.3564V388.466C75.3564 389.784 75.777 390.428 76.6462 390.428C77.0668 390.428 77.3752 390.26 77.6276 389.924C77.8799 389.587 77.9921 389.139 77.9921 388.55C77.9921 387.99 77.8519 387.513 77.5995 387.065ZM67.8418 388.354C67.6736 387.99 67.5053 387.766 67.3371 387.598C67.1408 387.457 66.9445 387.373 66.6922 387.373C66.4679 387.373 66.2716 387.457 66.1314 387.626C65.9912 387.794 65.9071 388.018 65.9071 388.27C65.9071 388.635 66.0192 388.999 66.2436 389.363L65.2341 389.84C65.0659 389.587 64.9257 389.307 64.8135 388.999C64.7294 388.691 64.6733 388.354 64.6733 388.018C64.6733 387.429 64.8416 386.953 65.1781 386.589C65.5145 386.224 65.9632 386.028 66.4959 386.028C67.4773 386.028 68.2063 386.561 68.683 387.598L67.8418 388.354Z" fill="#748738"/>
<path d="M69.8046 380.592V378.322H79.5063V380.592H69.8046ZM67.8138 380.48C67.5615 380.76 67.225 380.9 66.8324 380.9C66.4399 380.9 66.1314 380.76 65.851 380.48C65.5987 380.199 65.4585 379.863 65.4585 379.443C65.4585 379.022 65.5707 378.686 65.823 378.406C66.0754 378.125 66.3838 377.985 66.7483 377.985C67.1409 377.985 67.4773 378.125 67.7577 378.406C68.0381 378.686 68.1783 379.022 68.1783 379.443C68.2064 379.863 68.0942 380.199 67.8138 380.48Z" fill="#748738"/>
<path d="M67.337 361.281C67.7015 360.468 68.2342 359.824 68.9072 359.403C69.5801 358.955 70.3932 358.759 71.3186 358.759C72.2439 358.759 73.029 358.983 73.7299 359.403C74.4309 359.824 74.9356 360.468 75.3002 361.281C75.6647 362.094 75.8329 363.047 75.8329 364.168V367.026H79.5061V369.381H66.8042V364.14C66.8042 363.075 66.9724 362.094 67.337 361.281ZM73.1972 361.926C72.7486 361.393 72.1317 361.113 71.3186 361.113C70.5054 361.113 69.8885 361.393 69.4399 361.926C68.9913 362.458 68.795 363.243 68.795 364.28V367.026H73.8421V364.28C73.8421 363.243 73.6178 362.458 73.1972 361.926Z" fill="#748738"/>
<path d="M70.7579 347.633C71.4589 346.904 72.5244 346.512 73.9264 346.512H79.4782V348.782H74.2068C73.3656 348.782 72.7207 348.978 72.3001 349.37C71.8795 349.763 71.6552 350.351 71.6552 351.08C71.6552 351.921 71.9075 352.565 72.4122 353.07C72.917 353.546 73.646 353.798 74.5713 353.798H79.4782V356.069H65.9912V353.798H70.8981C70.5056 353.434 70.1971 352.958 69.9728 352.397C69.7485 351.837 69.6644 351.22 69.6644 350.547C69.6924 349.342 70.0569 348.361 70.7579 347.633Z" fill="#748738"/>
<path d="M79.0015 341.466C78.5809 342.251 77.9921 342.868 77.235 343.316C76.478 343.765 75.6087 343.989 74.6554 343.989C73.7021 343.989 72.8609 343.765 72.1038 343.316C71.3467 342.868 70.7579 342.251 70.3373 341.466C69.9167 340.682 69.6924 339.785 69.6924 338.804C69.6924 337.823 69.9167 336.926 70.3373 336.141C70.7579 335.357 71.3467 334.74 72.1038 334.292C72.8609 333.843 73.7021 333.619 74.6554 333.619C75.6087 333.619 76.478 333.843 77.235 334.292C77.9921 334.74 78.5809 335.357 79.0015 336.141C79.4221 336.926 79.6464 337.823 79.6464 338.804C79.6464 339.813 79.4221 340.682 79.0015 341.466ZM76.8425 336.758C76.2817 336.226 75.5527 335.945 74.6554 335.945C73.7581 335.945 73.0291 336.226 72.4683 336.758C71.9075 337.291 71.6271 337.991 71.6271 338.832C71.6271 339.673 71.9075 340.345 72.4683 340.878C73.0291 341.41 73.7581 341.691 74.6554 341.691C75.5527 341.691 76.3097 341.41 76.8425 340.878C77.4033 340.345 77.6837 339.645 77.6837 338.832C77.6837 338.019 77.4033 337.291 76.8425 336.758ZM65.9912 337.907V335.245L68.4867 338.412V340.373L65.9912 337.907Z" fill="#748738"/>
<path d="M70.7579 322.662C71.4589 321.933 72.5244 321.541 73.9263 321.541H79.4782V323.811H74.2067C73.3656 323.811 72.7206 324.007 72.3001 324.4C71.8795 324.792 71.6551 325.381 71.6551 326.109C71.6551 326.95 71.9075 327.595 72.4122 328.099C72.9169 328.576 73.6459 328.828 74.5712 328.828H79.4782V331.098H69.7765V328.94H71.0383C70.5896 328.576 70.2532 328.099 70.0289 327.539C69.8045 326.978 69.6924 326.333 69.6924 325.605C69.6924 324.4 70.0569 323.419 70.7579 322.662Z" fill="#748738"/>
<path d="M69.8045 308.62H78.02C81.4408 308.62 83.1513 310.358 83.1513 313.833C83.1513 314.758 83.0391 315.655 82.7867 316.495C82.5624 317.336 82.1979 318.009 81.7493 318.569L80.0389 317.56C80.4034 317.14 80.6838 316.608 80.8801 315.963C81.1044 315.318 81.1885 314.674 81.1885 314.001C81.1885 312.936 80.9361 312.151 80.4595 311.647C79.9828 311.142 79.2257 310.89 78.2443 310.89H77.7396C78.1602 311.283 78.4967 311.759 78.693 312.32C78.9173 312.88 79.0294 313.497 79.0294 314.141C79.0294 315.066 78.8332 315.879 78.4406 316.636C78.0481 317.392 77.4873 317.981 76.7863 318.401C76.0853 318.822 75.2441 319.046 74.3188 319.046C73.3935 319.046 72.5804 318.822 71.8794 318.401C71.1784 317.981 70.6176 317.392 70.2251 316.636C69.8325 315.879 69.6362 315.066 69.6362 314.141C69.6362 313.441 69.7484 312.796 69.9727 312.235C70.197 311.675 70.5615 311.17 71.0382 310.806H69.7484V308.62H69.8045ZM76.3657 311.675C75.861 311.114 75.188 310.862 74.3469 310.862C73.5337 310.862 72.8888 311.142 72.3561 311.675C71.8514 312.235 71.599 312.936 71.599 313.777C71.599 314.646 71.8514 315.346 72.3561 315.907C72.8608 316.467 73.5337 316.72 74.3469 316.72C75.16 316.72 75.833 316.439 76.3657 315.907C76.8985 315.374 77.1508 314.646 77.1508 313.777C77.1508 312.908 76.8985 312.207 76.3657 311.675Z" fill="#748738"/>
<path d="M134.099 542.217L131.267 545.328L129.781 543.983L137.072 536.023L138.558 537.369L135.726 540.48L143.633 547.71L142.034 549.448L134.099 542.217Z" fill="#748738"/>
<path d="M144.138 532.576L145.736 534.034C145.568 534.146 145.455 534.258 145.343 534.398C144.754 535.042 144.474 535.743 144.53 536.444C144.586 537.144 144.951 537.845 145.68 538.49L149.157 541.657L147.614 543.338L140.464 536.808L141.922 535.211L142.96 536.163C142.623 534.986 143.016 533.809 144.138 532.576Z" fill="#748738"/>
<path d="M152.157 523.972L159.307 530.502L157.849 532.1L156.923 531.259C157.007 531.82 156.951 532.38 156.755 532.941C156.559 533.501 156.25 534.006 155.83 534.482C154.961 535.435 154.007 535.939 152.97 535.995C151.932 536.052 150.895 535.603 149.857 534.65L145.764 530.923L147.306 529.241L151.175 532.773C151.82 533.361 152.437 533.641 153.026 533.641C153.615 533.641 154.147 533.361 154.624 532.829C155.185 532.24 155.409 531.595 155.381 530.895C155.325 530.194 154.961 529.55 154.26 528.905L150.643 525.598L152.157 523.972ZM151.147 525.065L151.4 524.785C151.624 524.533 151.736 524.253 151.736 523.972C151.708 523.692 151.568 523.412 151.315 523.188C151.007 522.907 150.643 522.739 150.25 522.711L150.811 521.338C151.4 521.366 151.932 521.618 152.437 522.095C153.054 522.655 153.39 523.272 153.418 523.972C153.446 524.673 153.166 525.318 152.605 525.934L152.353 526.214L151.147 525.065Z" fill="#748738"/>
<path d="M162.503 516.798C163.148 517.022 163.765 517.386 164.326 517.891C165.027 518.536 165.531 519.264 165.784 520.105C166.036 520.946 166.064 521.787 165.84 522.655C165.616 523.524 165.167 524.309 164.494 525.066C163.821 525.794 163.092 526.299 162.223 526.579C161.382 526.887 160.54 526.943 159.671 526.747C158.83 526.551 158.045 526.159 157.316 525.514C156.615 524.869 156.138 524.141 155.886 523.3C155.634 522.459 155.606 521.618 155.83 520.75C156.054 519.881 156.503 519.096 157.176 518.339C157.4 518.087 157.708 517.807 158.045 517.499C158.129 517.443 158.213 517.33 158.353 517.218C158.494 517.078 158.606 516.966 158.718 516.854C158.998 516.546 159.138 516.237 159.11 515.929C159.082 515.621 158.942 515.341 158.69 515.116C158.409 514.864 158.045 514.696 157.596 514.64L158.157 513.267C158.802 513.351 159.335 513.575 159.783 513.995C160.176 514.36 160.428 514.752 160.54 515.2C160.653 515.649 160.625 516.125 160.484 516.602C161.185 516.49 161.83 516.574 162.503 516.798ZM163.821 521.646C163.765 520.862 163.429 520.161 162.756 519.572C162.083 518.956 161.354 518.676 160.597 518.704C159.811 518.732 159.138 519.04 158.578 519.657C158.017 520.273 157.765 520.974 157.793 521.73C157.849 522.515 158.213 523.188 158.858 523.804C159.531 524.421 160.26 524.729 161.017 524.701C161.802 524.673 162.447 524.365 163.036 523.748C163.625 523.132 163.877 522.431 163.821 521.646Z" fill="#748738"/>
<path d="M168.84 507.156C169.878 507.1 170.887 507.548 171.925 508.473L176.018 512.229L174.476 513.91L170.579 510.351C169.962 509.762 169.345 509.482 168.756 509.51C168.167 509.51 167.634 509.791 167.13 510.323C166.569 510.94 166.317 511.584 166.345 512.285C166.401 512.985 166.765 513.658 167.466 514.275L171.083 517.582L169.541 519.263L162.391 512.733L163.849 511.136L164.774 511.977C164.69 511.388 164.774 510.827 164.971 510.239C165.195 509.65 165.532 509.118 166.008 508.585C166.905 507.689 167.831 507.212 168.84 507.156Z" fill="#748738"/>
<path d="M177.645 496.114L183.729 501.663C186.253 503.962 186.337 506.4 183.982 508.978C183.365 509.679 182.664 510.239 181.935 510.688C181.206 511.136 180.477 511.416 179.776 511.529L179.215 509.623C179.748 509.539 180.336 509.343 180.925 509.006C181.514 508.67 182.047 508.25 182.495 507.773C183.224 506.988 183.561 506.26 183.533 505.559C183.505 504.858 183.14 504.186 182.411 503.513L182.047 503.177C182.103 503.737 182.019 504.326 181.794 504.858C181.57 505.419 181.262 505.951 180.813 506.428C180.196 507.1 179.495 507.577 178.682 507.857C177.897 508.137 177.084 508.193 176.271 508.025C175.458 507.857 174.7 507.465 174.028 506.848C173.355 506.232 172.906 505.531 172.654 504.718C172.429 503.934 172.401 503.121 172.626 502.308C172.85 501.495 173.27 500.767 173.887 500.066C174.364 499.533 174.869 499.141 175.43 498.889C175.99 498.609 176.579 498.496 177.196 498.524L176.243 497.656L177.645 496.114ZM180.421 502.812C180.421 502.056 180.112 501.411 179.495 500.851C178.906 500.29 178.233 500.066 177.476 500.122C176.719 500.178 176.074 500.542 175.486 501.159C174.897 501.804 174.616 502.504 174.616 503.261C174.616 504.018 174.925 504.662 175.514 505.195C176.131 505.755 176.803 506.007 177.561 505.951C178.318 505.895 178.991 505.531 179.579 504.886C180.14 504.27 180.421 503.569 180.421 502.812Z" fill="#748738"/>
<path d="M181.57 487.37L185.328 483.278C186.253 482.269 187.262 481.568 188.356 481.148C189.449 480.728 190.571 480.616 191.665 480.84C192.758 481.064 193.796 481.596 194.721 482.437C195.646 483.278 196.263 484.259 196.599 485.324C196.908 486.389 196.908 487.51 196.599 488.631C196.263 489.752 195.646 490.817 194.749 491.826L190.992 495.918L181.57 487.37ZM193.151 490.565C193.767 489.864 194.188 489.163 194.412 488.379C194.637 487.622 194.609 486.865 194.384 486.137C194.16 485.408 193.711 484.763 193.066 484.175C192.422 483.586 191.721 483.222 190.992 483.054C190.263 482.886 189.505 482.942 188.776 483.222C188.047 483.502 187.346 483.979 186.73 484.679L184.655 486.949L191.076 492.835L193.151 490.565ZM184.318 492.33L189.421 486.753L190.711 487.93L185.608 493.507L184.318 492.33Z" fill="#748738"/>
<path d="M203.918 486.782C203.637 486.81 203.385 486.698 203.133 486.474C202.908 486.249 202.768 485.997 202.768 485.717C202.768 485.437 202.852 485.156 203.048 484.932C203.245 484.708 203.525 484.568 203.805 484.568C204.114 484.568 204.366 484.652 204.591 484.876C204.843 485.1 204.955 485.352 204.955 485.633C204.955 485.913 204.843 486.165 204.647 486.417C204.45 486.67 204.198 486.782 203.918 486.782ZM194.02 478.234L195.562 476.552L202.712 483.082L201.17 484.764L194.02 478.234ZM192.618 476.805C192.225 476.833 191.917 476.72 191.608 476.468C191.328 476.216 191.188 475.88 191.16 475.515C191.16 475.123 191.3 474.787 191.58 474.478C191.861 474.17 192.197 474.002 192.562 473.974C192.926 473.946 193.263 474.058 193.543 474.31C193.823 474.59 193.992 474.899 194.02 475.291C194.048 475.684 193.908 476.02 193.627 476.328C193.319 476.608 192.982 476.777 192.618 476.805Z" fill="#748738"/>
<path d="M204.198 468.509C205.236 468.453 206.245 468.873 207.282 469.826L211.376 473.582L209.834 475.263L205.937 471.704C205.32 471.115 204.703 470.835 204.114 470.863C203.525 470.863 202.992 471.143 202.488 471.676C201.927 472.292 201.675 472.937 201.703 473.638C201.759 474.338 202.123 475.011 202.824 475.627L206.441 478.935L204.899 480.616L197.749 474.086L199.207 472.489L200.132 473.329C200.048 472.741 200.132 472.18 200.329 471.592C200.525 471.003 200.889 470.471 201.366 469.938C202.263 469.069 203.189 468.565 204.198 468.509Z" fill="#748738"/>
<path d="M212.834 459.065C213.872 459.008 214.881 459.429 215.918 460.382L220.012 464.137L218.47 465.819L214.573 462.259C213.956 461.671 213.339 461.391 212.75 461.419C212.161 461.419 211.628 461.699 211.124 462.231C210.563 462.848 210.311 463.493 210.339 464.193C210.395 464.894 210.759 465.567 211.46 466.183L215.077 469.49L213.535 471.172L203.581 462.091L205.123 460.41L208.74 463.717C208.712 463.156 208.796 462.624 208.993 462.063C209.217 461.503 209.553 460.998 210.002 460.494C210.899 459.625 211.825 459.121 212.834 459.065Z" fill="#748738"/>
<path d="M378.799 266.749L377.762 270.841L375.827 270.365L378.463 259.911L380.398 260.388L379.36 264.479L389.763 267.086L389.174 269.384L378.799 266.749Z" fill="#748738"/>
<path d="M383.061 253.521L385.164 254.054C385.08 254.222 385.024 254.39 384.968 254.558C384.743 255.427 384.828 256.156 385.22 256.744C385.585 257.361 386.258 257.781 387.183 258.006L391.753 259.155L391.193 261.341L381.799 258.987L382.332 256.885L383.706 257.221C382.865 256.352 382.641 255.119 383.061 253.521Z" fill="#748738"/>
<path d="M386.033 242.142L395.427 244.496L394.894 246.598L393.688 246.29C394.025 246.738 394.249 247.271 394.333 247.86C394.417 248.448 394.389 249.037 394.249 249.653C393.941 250.914 393.324 251.811 392.454 252.344C391.585 252.876 390.464 252.988 389.062 252.652L383.678 251.307L384.239 249.121L389.314 250.41C390.155 250.634 390.828 250.578 391.361 250.298C391.866 250.018 392.23 249.541 392.398 248.84C392.595 248.056 392.51 247.355 392.146 246.795C391.781 246.206 391.137 245.814 390.211 245.561L385.445 244.356L386.033 242.142ZM385.669 243.544L385.753 243.179C385.837 242.843 385.809 242.535 385.641 242.31C385.473 242.058 385.248 241.89 384.884 241.806C384.463 241.694 384.071 241.722 383.706 241.89L383.566 240.405C384.099 240.152 384.687 240.124 385.36 240.293C386.174 240.489 386.762 240.881 387.099 241.47C387.463 242.058 387.519 242.759 387.323 243.572L387.239 243.936L385.669 243.544Z" fill="#748738"/>
<path d="M391.725 230.904C392.398 230.792 393.099 230.82 393.828 231.016C394.754 231.24 395.539 231.689 396.156 232.277C396.773 232.894 397.221 233.623 397.417 234.491C397.642 235.36 397.614 236.257 397.389 237.238C397.137 238.191 396.716 239.003 396.128 239.648C395.539 240.293 394.81 240.769 393.969 240.993C393.127 241.246 392.23 241.246 391.305 241.021C390.38 240.797 389.594 240.377 388.978 239.732C388.361 239.116 387.94 238.387 387.716 237.518C387.491 236.649 387.52 235.752 387.744 234.772C387.828 234.435 387.94 234.043 388.108 233.594C388.136 233.51 388.192 233.37 388.249 233.202C388.305 233.034 388.361 232.866 388.389 232.698C388.501 232.305 388.445 231.969 388.305 231.689C388.136 231.436 387.884 231.24 387.548 231.156C387.183 231.072 386.79 231.1 386.37 231.24L386.202 229.783C386.79 229.559 387.407 229.503 387.996 229.643C388.501 229.783 388.921 230.007 389.23 230.343C389.538 230.68 389.735 231.1 389.819 231.605C390.436 231.268 391.052 231.016 391.725 230.904ZM395.202 234.547C394.81 233.875 394.137 233.454 393.268 233.23C392.398 233.006 391.613 233.09 390.94 233.482C390.267 233.875 389.819 234.463 389.622 235.276C389.426 236.089 389.51 236.817 389.931 237.49C390.352 238.135 390.996 238.583 391.866 238.807C392.735 239.032 393.52 238.947 394.193 238.555C394.866 238.163 395.286 237.574 395.511 236.761C395.707 235.949 395.623 235.192 395.202 234.547Z" fill="#748738"/>
<path d="M392.735 219.386C393.604 218.853 394.726 218.741 396.1 219.077L401.483 220.423L400.923 222.637L395.82 221.347C395.006 221.151 394.333 221.179 393.829 221.46C393.324 221.74 392.959 222.244 392.791 222.945C392.595 223.758 392.679 224.458 393.044 225.047C393.408 225.635 394.053 226.056 394.978 226.28L399.745 227.485L399.184 229.699L389.791 227.345L390.324 225.243L391.529 225.551C391.193 225.075 390.969 224.542 390.885 223.926C390.8 223.309 390.857 222.665 391.025 221.964C391.277 220.815 391.866 219.946 392.735 219.386Z" fill="#748738"/>
<path d="M395.23 205.513L403.222 207.531C406.53 208.371 407.764 210.473 406.923 213.836C406.698 214.733 406.362 215.574 405.941 216.331C405.521 217.087 405.016 217.676 404.427 218.096L403.025 216.695C403.474 216.359 403.867 215.91 404.231 215.35C404.596 214.761 404.848 214.173 405.016 213.528C405.268 212.491 405.24 211.678 404.876 211.09C404.511 210.501 403.867 210.081 402.913 209.829L402.408 209.717C402.717 210.193 402.913 210.726 402.997 211.314C403.081 211.903 403.025 212.519 402.857 213.164C402.633 214.061 402.24 214.817 401.679 215.434C401.119 216.05 400.446 216.499 399.633 216.723C398.847 216.975 397.978 216.975 397.109 216.751C396.24 216.527 395.483 216.107 394.894 215.518C394.305 214.929 393.941 214.229 393.716 213.416C393.52 212.603 393.548 211.734 393.772 210.866C393.941 210.193 394.221 209.604 394.585 209.1C394.95 208.596 395.399 208.203 395.959 207.951L394.698 207.643L395.23 205.513ZM400.866 210.081C400.502 209.408 399.913 208.988 399.128 208.792C398.343 208.596 397.642 208.708 396.997 209.1C396.38 209.52 395.959 210.137 395.735 210.978C395.511 211.819 395.595 212.575 395.959 213.22C396.324 213.892 396.885 214.313 397.67 214.509C398.483 214.705 399.184 214.593 399.829 214.201C400.474 213.78 400.894 213.164 401.091 212.323C401.315 211.482 401.231 210.754 400.866 210.081Z" fill="#748738"/>
<path d="M394.529 195.956L395.875 190.575C396.212 189.258 396.744 188.165 397.53 187.268C398.287 186.371 399.212 185.755 400.305 185.446C401.371 185.11 402.521 185.11 403.754 185.418C404.988 185.727 405.969 186.287 406.783 187.072C407.568 187.857 408.1 188.837 408.353 189.986C408.605 191.136 408.577 192.369 408.241 193.686L406.895 199.067L394.529 195.956ZM406.25 193.294C406.474 192.397 406.502 191.556 406.334 190.771C406.166 189.987 405.801 189.342 405.24 188.809C404.68 188.277 404.007 187.913 403.137 187.688C402.296 187.464 401.511 187.464 400.782 187.688C400.053 187.885 399.436 188.305 398.903 188.893C398.399 189.482 398.006 190.239 397.782 191.136L397.025 194.134L405.465 196.264L406.25 193.294ZM399.324 199.011L401.175 191.696L402.857 192.116L401.006 199.431L399.324 199.011Z" fill="#748738"/>
<path d="M413.933 184.857C413.68 184.997 413.428 185.053 413.092 184.969C412.783 184.885 412.559 184.717 412.391 184.465C412.222 184.213 412.194 183.932 412.278 183.624C412.363 183.316 412.531 183.091 412.783 182.951C413.035 182.811 413.316 182.755 413.624 182.839C413.933 182.923 414.157 183.091 414.297 183.344C414.437 183.596 414.466 183.876 414.381 184.156C414.353 184.465 414.185 184.689 413.933 184.857ZM401.147 181.998L401.708 179.812L411.101 182.167L410.54 184.381L401.147 181.998ZM399.268 181.41C398.96 181.606 398.595 181.662 398.231 181.578C397.866 181.494 397.586 181.27 397.39 180.933C397.193 180.597 397.165 180.233 397.249 179.84C397.333 179.448 397.558 179.14 397.866 178.916C398.175 178.691 398.511 178.635 398.876 178.747C399.268 178.86 399.549 179.056 399.745 179.392C399.941 179.728 399.997 180.093 399.885 180.513C399.801 180.905 399.577 181.214 399.268 181.41Z" fill="#748738"/>
<path d="M405.521 168.63C406.39 168.097 407.512 167.985 408.886 168.322L414.269 169.667L413.708 171.881L408.605 170.592C407.792 170.395 407.119 170.423 406.614 170.704C406.11 170.984 405.745 171.488 405.577 172.189C405.381 173.002 405.465 173.703 405.829 174.291C406.194 174.88 406.839 175.3 407.764 175.524L412.531 176.729L411.97 178.915L402.577 176.561L403.109 174.459L404.315 174.768C403.979 174.291 403.754 173.759 403.67 173.142C403.586 172.525 403.642 171.881 403.81 171.18C404.063 170.031 404.652 169.162 405.521 168.63Z" fill="#748738"/>
<path d="M408.633 156.215C409.503 155.682 410.624 155.57 411.998 155.906L417.382 157.252L416.821 159.466L411.718 158.177C410.905 157.98 410.232 158.008 409.727 158.289C409.222 158.569 408.858 159.073 408.69 159.774C408.493 160.587 408.577 161.287 408.942 161.876C409.306 162.465 409.951 162.885 410.877 163.109L415.643 164.314L415.083 166.5L402.016 163.221L402.577 161.035L407.344 162.24C407.035 161.764 406.867 161.259 406.783 160.671C406.699 160.082 406.755 159.466 406.923 158.793C407.175 157.616 407.764 156.747 408.633 156.215Z" fill="#748738"/>
<path d="M545.971 45.5406H541.765V43.5508H552.56V45.5406H548.354V56.2466H545.999V45.5406H545.971Z" fill="#748738"/>
<path d="M559.85 46.4365V48.5945C559.654 48.5665 559.486 48.5385 559.318 48.5385C558.42 48.5385 557.747 48.7907 557.243 49.3232C556.738 49.8277 556.486 50.5844 556.486 51.5373V56.2456H554.214V46.5486H556.373V47.9499C557.046 46.941 558.196 46.4365 559.85 46.4365Z" fill="#748738"/>
<path d="M570.141 46.549H570.533C570.898 46.549 571.15 46.4369 571.347 46.2407C571.543 46.0165 571.655 45.7362 571.655 45.3999C571.655 44.9795 571.543 44.6152 571.29 44.2789L572.692 43.7744C573.057 44.2228 573.225 44.8114 573.225 45.484C573.225 46.3248 572.973 46.9694 572.496 47.4738C572.02 47.9783 571.347 48.2025 570.505 48.2025H570.141V46.549ZM571.599 46.549V56.246H569.44V55.0128C569.075 55.4613 568.627 55.7976 568.066 56.0218C567.505 56.246 566.944 56.3861 566.299 56.3861C565.01 56.3861 563.972 56.0218 563.243 55.3211C562.514 54.6205 562.122 53.5275 562.122 52.1262V46.605H564.393V51.8459C564.393 52.7147 564.589 53.3593 564.982 53.8077C565.374 54.2281 565.935 54.4523 566.664 54.4523C567.477 54.4523 568.122 54.2001 568.599 53.6956C569.075 53.1912 569.328 52.4625 569.328 51.5376V46.6331H571.599V46.549Z" fill="#748738"/>
<path d="M583.908 49.3234C584.188 49.94 584.328 50.6406 584.328 51.3973C584.328 52.3502 584.104 53.219 583.656 53.9757C583.207 54.7324 582.59 55.321 581.805 55.7414C581.02 56.1618 580.123 56.386 579.141 56.386C578.16 56.386 577.263 56.1618 576.477 55.7414C575.692 55.321 575.075 54.7324 574.627 53.9757C574.178 53.219 573.982 52.3502 573.982 51.3973C573.982 50.4445 574.206 49.6037 574.655 48.847C575.104 48.0903 575.72 47.5017 576.505 47.0813C577.291 46.6609 578.188 46.4367 579.169 46.4367C579.534 46.4367 579.926 46.4648 580.375 46.5208C580.459 46.5208 580.599 46.5488 580.796 46.5488C580.992 46.5488 581.16 46.5769 581.3 46.5769C581.721 46.5769 582.029 46.4648 582.254 46.2406C582.478 46.0163 582.59 45.7361 582.59 45.3717C582.59 44.9794 582.478 44.615 582.197 44.2507L583.571 43.7462C583.936 44.2787 584.132 44.8393 584.132 45.4558C584.132 45.9883 584.02 46.4367 583.74 46.8291C583.487 47.2215 583.123 47.5017 582.674 47.7259C583.235 48.1743 583.627 48.7069 583.908 49.3234ZM581.216 53.5834C581.749 53.0228 582.029 52.2942 582.029 51.3973C582.029 50.5005 581.749 49.7718 581.216 49.2113C580.683 48.6508 579.982 48.3705 579.141 48.3705C578.3 48.3705 577.627 48.6508 577.094 49.2113C576.562 49.7718 576.281 50.5005 576.281 51.3973C576.281 52.2942 576.562 53.0509 577.094 53.5834C577.627 54.1439 578.328 54.4242 579.141 54.4242C579.954 54.4242 580.683 54.1439 581.216 53.5834ZM575.552 42.7373H578.216L580.655 45.2316H578.693L575.552 42.7373Z" fill="#748738"/>
<path d="M595.32 47.5015C596.049 48.2022 596.442 49.2672 596.442 50.6685V56.2176H594.171V50.9487C594.171 50.1079 593.974 49.4633 593.582 49.0429C593.189 48.6226 592.6 48.3983 591.871 48.3983C591.03 48.3983 590.385 48.6506 589.881 49.155C589.404 49.6595 589.152 50.3882 589.152 51.3131V56.2176H586.88V46.5206H589.039V47.7818C589.404 47.3334 589.881 46.997 590.441 46.7728C591.002 46.5486 591.647 46.4365 592.376 46.4365C593.582 46.4365 594.563 46.8009 595.32 47.5015Z" fill="#748738"/>
<path d="M609.368 46.55V54.7616C609.368 58.1808 607.629 59.8904 604.152 59.8904C603.227 59.8904 602.33 59.7783 601.489 59.526C600.647 59.3018 599.975 58.9375 599.414 58.4891L600.423 56.7795C600.844 57.1438 601.376 57.4241 602.021 57.6203C602.666 57.8445 603.311 57.9286 603.984 57.9286C605.05 57.9286 605.835 57.6763 606.339 57.1999C606.844 56.7234 607.097 55.9667 607.097 54.9858V54.4814C606.704 54.9017 606.227 55.2381 605.667 55.4342C605.106 55.6584 604.489 55.7706 603.844 55.7706C602.919 55.7706 602.105 55.5744 601.348 55.182C600.591 54.7896 600.003 54.2291 599.582 53.5285C599.161 52.8278 598.937 51.987 598.937 51.0622C598.937 50.1373 599.161 49.3246 599.582 48.6239C600.003 47.9233 600.591 47.3628 601.348 46.9704C602.105 46.578 602.919 46.3818 603.844 46.3818C604.545 46.3818 605.19 46.4939 605.751 46.7182C606.311 46.9424 606.816 47.3067 607.181 47.7831V46.4939H609.368V46.55ZM606.311 53.1081C606.872 52.6036 607.125 51.931 607.125 51.0902C607.125 50.2775 606.844 49.6329 606.311 49.1004C605.751 48.5959 605.05 48.3437 604.208 48.3437C603.339 48.3437 602.638 48.5959 602.077 49.1004C601.517 49.6048 601.264 50.2775 601.264 51.0902C601.264 51.903 601.545 52.5756 602.077 53.1081C602.61 53.6406 603.339 53.8928 604.208 53.8928C605.078 53.8928 605.779 53.6406 606.311 53.1081Z" fill="#748738"/>
<path d="M623.92 55.7138C623.668 55.938 623.332 56.1062 622.939 56.1902C622.546 56.3024 622.154 56.3584 621.733 56.3584C620.668 56.3584 619.855 56.0781 619.266 55.5176C618.677 54.9571 618.397 54.1443 618.397 53.0794V48.399H616.798V46.5773H618.397V44.3633H620.668V46.5773H623.275V48.399H620.668V53.0233C620.668 53.4998 620.78 53.8641 621.004 54.0883C621.229 54.3405 621.565 54.4526 622.014 54.4526C622.518 54.4526 622.939 54.3125 623.275 54.0603L623.92 55.7138Z" fill="#748738"/>
<path d="M626.276 44.5593C625.995 44.307 625.855 43.9707 625.855 43.5783C625.855 43.186 625.995 42.8777 626.276 42.5974C626.556 42.3452 626.892 42.2051 627.313 42.2051C627.734 42.2051 628.07 42.3172 628.35 42.5694C628.631 42.8216 628.771 43.1299 628.771 43.4943C628.771 43.8866 628.631 44.2229 628.35 44.5032C628.07 44.7835 627.734 44.9236 627.313 44.9236C626.892 44.9516 626.556 44.8115 626.276 44.5593ZM626.163 46.5491H628.435V56.2461H626.163V46.5491Z" fill="#748738"/>
<path d="M640.856 52.1263H633.258C633.398 52.827 633.734 53.4155 634.295 53.8359C634.856 54.2563 635.557 54.4525 636.398 54.4525C637.463 54.4525 638.333 54.0881 639.034 53.3875L640.239 54.7888C639.791 55.3213 639.258 55.7137 638.585 55.9659C637.912 56.2181 637.155 56.3583 636.342 56.3583C635.276 56.3583 634.351 56.134 633.538 55.7137C632.725 55.2933 632.108 54.7047 631.659 53.948C631.211 53.1913 630.986 52.3225 630.986 51.3696C630.986 50.4167 631.211 49.576 631.631 48.8193C632.052 48.0626 632.669 47.474 633.426 47.0536C634.183 46.6332 635.052 46.409 636.005 46.409C636.959 46.409 637.8 46.6052 638.529 47.0256C639.286 47.446 639.847 48.0345 640.267 48.7912C640.688 49.5479 640.884 50.4167 640.884 51.4257C640.884 51.6219 640.884 51.8461 640.856 52.1263ZM638.277 43.2701C638.753 43.0459 638.978 42.7656 638.978 42.4574C638.978 42.2892 638.921 42.1491 638.809 42.037C638.697 41.9249 638.529 41.8968 638.333 41.8968C638.052 41.8968 637.8 41.9809 637.52 42.121L637.127 41.3924C637.491 41.1401 637.968 41 638.529 41C639.006 41 639.37 41.1121 639.651 41.3643C639.931 41.6166 640.071 41.9529 640.071 42.3452C640.071 42.7096 639.959 43.0179 639.735 43.2701C639.51 43.5223 639.23 43.7465 638.865 43.8867L638.277 43.2701ZM637.52 45.2319L635.949 44.223L634.379 45.2319H632.5L634.94 43.2981H636.987L639.426 45.2319H637.52ZM634.127 48.9033C633.622 49.3237 633.314 49.9123 633.201 50.6129H638.697C638.585 49.9123 638.305 49.3517 637.8 48.9033C637.295 48.4549 636.678 48.2587 635.949 48.2587C635.248 48.2587 634.631 48.4829 634.127 48.9033Z" fill="#748738"/>
<path d="M652.829 46.5498V56.2468H650.67V55.0137C650.305 55.4621 649.857 55.7984 649.296 56.0226C648.735 56.2468 648.174 56.3869 647.529 56.3869C646.24 56.3869 645.202 56.0226 644.473 55.3219C643.744 54.6213 643.352 53.5283 643.352 52.127V46.6059H645.623V51.8467C645.623 52.7155 645.819 53.3601 646.212 53.8085C646.604 54.2289 647.165 54.4531 647.894 54.4531C648.707 54.4531 649.352 54.2009 649.829 53.6964C650.305 53.192 650.558 52.4633 650.558 51.5384V46.6339H652.829V46.5498Z" fill="#748738"/>
<path d="M669.961 47.5017C670.69 48.2024 671.083 49.2674 671.083 50.6687V56.2178H668.812V50.9489C668.812 50.1081 668.615 49.4635 668.223 49.0432C667.83 48.6228 667.242 48.3986 666.513 48.3986C665.671 48.3986 665.026 48.6508 664.522 49.1553C664.045 49.6597 663.793 50.3884 663.793 51.3133V56.2178H661.521V42.7373H663.793V47.6419C664.157 47.2495 664.634 46.9412 665.195 46.717C665.755 46.4928 666.372 46.4087 667.045 46.4087C668.251 46.4367 669.232 46.8011 669.961 47.5017Z" fill="#748738"/>
<path d="M676.13 55.7412C675.345 55.3208 674.728 54.7322 674.279 53.9755C673.831 53.2188 673.606 52.35 673.606 51.3971C673.606 50.4442 673.831 49.6035 674.279 48.8468C674.728 48.0901 675.345 47.5015 676.13 47.0811C676.915 46.6607 677.812 46.4365 678.794 46.4365C679.775 46.4365 680.672 46.6607 681.458 47.0811C682.243 47.5015 682.859 48.0901 683.308 48.8468C683.757 49.6035 683.981 50.4442 683.981 51.3971C683.981 52.35 683.757 53.2188 683.308 53.9755C682.859 54.7322 682.243 55.3208 681.458 55.7412C680.672 56.1615 679.775 56.3858 678.794 56.3858C677.812 56.3577 676.915 56.1615 676.13 55.7412ZM680.841 53.5832C681.373 53.0226 681.654 52.294 681.654 51.3971C681.654 50.5003 681.373 49.7716 680.841 49.2111C680.308 48.6506 679.607 48.3703 678.766 48.3703C677.925 48.3703 677.252 48.6506 676.719 49.2111C676.186 49.7716 675.906 50.5003 675.906 51.3971C675.906 52.294 676.186 53.0507 676.719 53.5832C677.252 54.1437 677.953 54.4239 678.766 54.4239C679.579 54.4239 680.308 54.1437 680.841 53.5832ZM677.981 59.6368C677.784 59.4406 677.672 59.1884 677.672 58.852C677.672 58.5438 677.784 58.2635 677.981 58.0673C678.177 57.8431 678.457 57.759 678.766 57.759C679.074 57.759 679.355 57.8711 679.551 58.0673C679.747 58.2915 679.859 58.5438 679.859 58.852C679.859 59.1884 679.747 59.4406 679.551 59.6368C679.355 59.833 679.074 59.917 678.766 59.917C678.457 59.917 678.177 59.833 677.981 59.6368Z" fill="#748738"/>
<path d="M688.243 55.7412C687.457 55.3208 686.813 54.7322 686.364 53.9755C685.915 53.2188 685.691 52.35 685.691 51.3971C685.691 50.4442 685.915 49.6035 686.364 48.8468C686.813 48.0901 687.429 47.5015 688.214 47.0811C689 46.6607 689.925 46.4365 690.934 46.4365C691.888 46.4365 692.729 46.6327 693.458 47.0251C694.187 47.4174 694.72 47.978 695.084 48.7066L693.346 49.7156C693.065 49.2672 692.729 48.9308 692.308 48.7066C691.888 48.4824 691.439 48.3703 690.934 48.3703C690.093 48.3703 689.392 48.6506 688.831 49.1831C688.271 49.7436 687.99 50.4723 687.99 51.3971C687.99 52.322 688.271 53.0507 688.803 53.6112C689.336 54.1717 690.065 54.4239 690.906 54.4239C691.411 54.4239 691.86 54.3118 692.28 54.0876C692.701 53.8634 693.037 53.5271 693.318 53.0787L695.056 54.0876C694.692 54.8163 694.131 55.3768 693.402 55.7692C692.673 56.1616 691.86 56.3577 690.906 56.3577C689.953 56.3577 689.028 56.1615 688.243 55.7412Z" fill="#748738"/>
<path d="M585.562 65.1588H581.356V63.1689H592.152V65.1588H587.946V75.8647H585.59V65.1588H585.562Z" fill="#748738"/>
<path d="M600.536 67.0919C601.293 67.7645 601.657 68.8015 601.657 70.1747V75.864H599.526V74.6869C599.246 75.1073 598.853 75.4436 598.349 75.6678C597.844 75.892 597.227 76.0041 596.498 76.0041C595.769 76.0041 595.124 75.892 594.591 75.6398C594.059 75.3876 593.638 75.0512 593.329 74.6028C593.021 74.1544 592.881 73.678 592.881 73.1175C592.881 72.2486 593.217 71.548 593.862 71.0155C594.507 70.483 595.517 70.2308 596.919 70.2308H599.414V70.0907C599.414 69.418 599.218 68.8855 598.797 68.5212C598.405 68.1569 597.788 67.9887 597.003 67.9887C596.47 67.9887 595.937 68.0728 595.404 68.2409C594.872 68.4091 594.423 68.6333 594.059 68.9416L593.161 67.2881C593.666 66.8957 594.283 66.6154 594.984 66.3912C595.685 66.195 596.442 66.0829 597.255 66.0829C598.685 66.0549 599.779 66.3912 600.536 67.0919ZM599.05 64.8498L597.451 63.5045L595.853 64.8498H593.974L596.414 62.3555H598.489L600.928 64.8498H599.05ZM598.461 73.9582C598.909 73.706 599.218 73.3136 599.386 72.8372V71.7162H597.059C595.741 71.7162 595.096 72.1365 595.096 73.0053C595.096 73.4257 595.264 73.734 595.601 73.9863C595.937 74.2385 596.386 74.3506 596.975 74.3506C597.535 74.3226 598.04 74.2105 598.461 73.9582Z" fill="#748738"/>
<path d="M613.377 67.1207C614.106 67.8213 614.499 68.8863 614.499 70.2876V75.8367H612.228V70.5679C612.228 69.7271 612.031 69.0825 611.639 68.6621C611.246 68.2417 610.658 68.0175 609.929 68.0175C609.087 68.0175 608.442 68.2697 607.938 68.7742C607.461 69.2787 607.209 70.0073 607.209 70.9322V75.8367H604.938V66.1397H607.097V67.4009C607.461 66.9525 607.938 66.6162 608.499 66.392C609.059 66.1678 609.704 66.0557 610.433 66.0557C611.667 66.0557 612.648 66.42 613.377 67.1207Z" fill="#748738"/>
<path d="M635.024 75.865L634.996 67.4572L630.818 74.4357H629.753L625.575 67.5693V75.8931H623.332V63.1973H625.266L630.313 71.6051L635.276 63.1973H637.211L637.239 75.8931H635.024V75.865Z" fill="#748738"/>
<path d="M647.81 67.0926C648.567 67.7652 648.932 68.8022 648.932 70.1754V75.8647H646.801V74.6876C646.52 75.108 646.128 75.4443 645.623 75.6685C645.118 75.8927 644.501 76.0048 643.772 76.0048C643.043 76.0048 642.398 75.8928 641.866 75.6405C641.333 75.3883 640.912 75.052 640.604 74.6035C640.295 74.1551 640.155 73.6787 640.155 73.1182C640.155 72.2494 640.492 71.5487 641.137 71.0162C641.782 70.4837 642.791 70.2315 644.193 70.2315H646.688V70.0914C646.688 69.4187 646.492 68.8862 646.072 68.5219C645.679 68.1576 645.062 67.9894 644.277 67.9894C643.744 67.9894 643.212 68.0735 642.679 68.2417C642.146 68.4098 641.697 68.634 641.333 68.9423L640.436 67.2888C640.94 66.8964 641.557 66.6161 642.258 66.3919C642.959 66.1957 643.716 66.0836 644.529 66.0836C645.959 66.0556 647.053 66.3919 647.81 67.0926ZM645.735 73.9589C646.184 73.7067 646.492 73.3144 646.66 72.8379V71.7169H644.333C643.015 71.7169 642.37 72.1373 642.37 73.0061C642.37 73.4265 642.539 73.7347 642.875 73.987C643.212 74.2392 643.66 74.3513 644.249 74.3513C644.782 74.3233 645.286 74.2112 645.735 73.9589Z" fill="#748738"/>
<path d="M652.324 64.1774C652.044 63.9252 651.904 63.5889 651.904 63.1965C651.904 62.8041 652.044 62.4959 652.324 62.2156C652.605 61.9634 652.941 61.8232 653.362 61.8232C653.782 61.8232 654.119 61.9353 654.399 62.1876C654.68 62.4398 654.82 62.7481 654.82 63.1124C654.82 63.5048 654.68 63.8411 654.399 64.1214C654.119 64.4016 653.782 64.5418 653.362 64.5418C652.941 64.5698 652.605 64.4297 652.324 64.1774ZM652.212 66.1673H654.483V75.8643H652.212V66.1673Z" fill="#748738"/>
<path d="M634.584 82.5332H602.584V101.533H634.584V82.5332Z" fill="#748738"/>
<path d="M55 41.5039V711.578" stroke="#748738" stroke-width="2" stroke-miterlimit="10"/>
<path d="M94.8442 711.577V624.752L399.269 294.41L436.253 153.972H742.472" stroke="#748738" stroke-width="2" stroke-miterlimit="10"/>
<path d="M416.569 41.5039L396.016 117.651H89.2363V41.5039" stroke="#748738" stroke-width="2" stroke-miterlimit="10"/>
<path d="M458.488 41.5039L441.271 117.651H742.471" stroke="#748738" stroke-width="2" stroke-miterlimit="10"/>
<path d="M89.2363 153.972H392.343L361.387 277.258L89.2363 563.88V153.972Z" stroke="#748738" stroke-width="2" stroke-miterlimit="10"/>
<path d="M335.03 372.52C335.03 376.499 331.805 379.75 327.796 379.75C323.814 379.75 320.562 376.527 320.562 372.52C320.562 368.54 323.786 365.289 327.796 365.289C331.805 365.289 335.03 368.54 335.03 372.52Z" fill="#748738"/>
<path d="M327.796 349.398C314.393 349.398 303.485 360.301 303.485 373.697C303.485 385.132 321.15 405.787 326.366 411.644C327.123 412.513 328.44 412.513 329.198 411.644C334.413 405.815 352.05 385.132 352.05 373.697C352.078 360.301 341.226 349.398 327.796 349.398ZM327.796 384.543C321.178 384.543 315.795 379.162 315.795 372.548C315.795 365.962 321.178 360.581 327.796 360.581C334.385 360.581 339.768 365.962 339.768 372.548C339.796 379.134 334.413 384.543 327.796 384.543Z" fill="#748738"/>
<path d="M327.795 360.553C321.178 360.553 315.794 365.934 315.794 372.52C315.794 379.134 321.178 384.515 327.795 384.515C334.385 384.515 339.768 379.134 339.768 372.52C339.796 365.934 334.413 360.553 327.795 360.553ZM327.795 379.751C323.814 379.751 320.561 376.528 320.561 372.52C320.561 368.54 323.786 365.289 327.795 365.289C331.777 365.289 335.03 368.512 335.03 372.52C335.03 376.5 331.805 379.751 327.795 379.751Z" fill="#C8D4AF"/>
<path d="M318.262 431.655H312.318V428.824H327.571V431.655H321.599V446.789H318.262V431.655Z" fill="#748738"/>
<path d="M342.236 434.457C343.274 435.466 343.806 436.952 343.806 438.942V446.789H340.61V439.362C340.61 438.157 340.329 437.26 339.769 436.643C339.208 436.027 338.395 435.719 337.357 435.719C336.18 435.719 335.254 436.083 334.553 436.784C333.852 437.484 333.516 438.521 333.516 439.838V446.761H330.319V427.703H333.516V434.626C334.049 434.065 334.694 433.617 335.479 433.336C336.264 433.028 337.133 432.888 338.086 432.888C339.797 432.944 341.171 433.448 342.236 434.457Z" fill="#748738"/>
<path d="M358.275 434.373C359.34 435.354 359.873 436.812 359.873 438.745V446.789H356.845V445.107C356.452 445.696 355.891 446.172 355.162 446.481C354.433 446.789 353.564 446.957 352.527 446.957C351.489 446.957 350.592 446.789 349.835 446.425C349.078 446.06 348.461 445.584 348.04 444.967C347.62 444.351 347.423 443.65 347.423 442.837C347.423 441.604 347.872 440.623 348.797 439.866C349.723 439.11 351.153 438.745 353.115 438.745H356.648V438.549C356.648 437.596 356.368 436.868 355.779 436.335C355.19 435.831 354.349 435.578 353.228 435.578C352.442 435.578 351.713 435.691 350.956 435.943C350.199 436.195 349.582 436.531 349.078 436.952L347.816 434.626C348.545 434.065 349.386 433.673 350.396 433.364C351.405 433.056 352.47 432.916 353.592 432.916C355.639 432.944 357.209 433.42 358.275 434.373ZM355.33 444.098C355.947 443.734 356.396 443.202 356.648 442.529V440.931H353.34C351.489 440.931 350.564 441.548 350.564 442.753C350.564 443.342 350.788 443.79 351.265 444.154C351.741 444.491 352.358 444.659 353.199 444.659C354.013 444.631 354.714 444.463 355.33 444.098Z" fill="#748738"/>
<path d="M376.444 434.457C377.482 435.466 378.014 436.952 378.014 438.942V446.789H374.818V439.362C374.818 438.157 374.537 437.26 373.977 436.643C373.416 436.027 372.603 435.719 371.565 435.719C370.388 435.719 369.462 436.083 368.761 436.784C368.06 437.484 367.724 438.521 367.724 439.838V446.761H364.527V433.056H367.584V434.822C368.116 434.177 368.789 433.701 369.574 433.392C370.388 433.056 371.285 432.916 372.294 432.916C374.005 432.944 375.379 433.449 376.444 434.457Z" fill="#748738"/>
<path d="M394.53 434.457C395.567 435.466 396.1 436.952 396.1 438.942V446.789H392.903V439.362C392.903 438.157 392.623 437.26 392.062 436.643C391.501 436.027 390.688 435.719 389.651 435.719C388.473 435.719 387.548 436.083 386.847 436.784C386.146 437.484 385.809 438.521 385.809 439.838V446.761H382.613V427.703H385.809V434.626C386.342 434.065 386.987 433.617 387.772 433.336C388.557 433.028 389.426 432.888 390.38 432.888C392.118 432.944 393.492 433.448 394.53 434.457Z" fill="#748738"/>
<path d="M412.251 431.655H406.306V428.824H421.56V431.655H415.587V446.789H412.251V431.655Z" fill="#748738"/>
<path d="M436.224 434.457C437.262 435.466 437.795 436.952 437.795 438.942V446.789H434.598V439.362C434.598 438.157 434.318 437.26 433.757 436.643C433.196 436.027 432.383 435.719 431.346 435.719C430.168 435.719 429.243 436.083 428.542 436.784C427.841 437.484 427.504 438.521 427.504 439.838V446.761H424.308V427.703H427.504V434.626C428.037 434.065 428.682 433.617 429.467 433.336C430.252 433.028 431.121 432.888 432.075 432.888C433.785 432.944 435.187 433.448 436.224 434.457Z" fill="#748738"/>
<path d="M455.656 433.084V446.788H452.599V445.051C452.095 445.667 451.45 446.144 450.665 446.48C449.908 446.816 449.066 446.985 448.169 446.985C446.346 446.985 444.888 446.48 443.851 445.471C442.785 444.462 442.281 442.949 442.281 440.931V433.112H445.477V440.511C445.477 441.744 445.758 442.669 446.318 443.257C446.879 443.874 447.664 444.182 448.702 444.182C449.851 444.182 450.749 443.818 451.45 443.117C452.123 442.416 452.459 441.379 452.459 440.062V433.14H455.656V433.084ZM448.534 430.281C449.038 430.057 449.375 429.805 449.599 429.552C449.823 429.3 449.907 428.992 449.907 428.627C449.907 428.291 449.795 428.039 449.543 427.815C449.291 427.591 448.982 427.506 448.618 427.506C448.085 427.506 447.58 427.675 447.076 427.983L446.375 426.582C446.711 426.329 447.104 426.133 447.552 425.993C448.001 425.853 448.449 425.797 448.926 425.797C449.739 425.797 450.412 426.021 450.945 426.498C451.478 426.974 451.73 427.591 451.73 428.347C451.73 429.721 451.001 430.757 449.515 431.458L448.534 430.281Z" fill="#748738"/>
<path d="M473.236 433.084L466.815 447.882C466.227 449.367 465.498 450.432 464.628 451.021C463.759 451.637 462.75 451.946 461.516 451.946C460.843 451.946 460.142 451.833 459.497 451.609C458.852 451.385 458.291 451.077 457.843 450.684L459.133 448.33C459.441 448.61 459.806 448.863 460.226 449.031C460.647 449.199 461.067 449.283 461.488 449.283C462.049 449.283 462.525 449.143 462.89 448.835C463.254 448.554 463.591 448.05 463.899 447.377L464.124 446.845L458.151 433.084H461.488L465.806 443.229L470.152 433.084H473.236Z" fill="#748738"/>
<path d="M326.085 453.066C327.235 453.57 328.132 454.327 328.749 455.28C329.366 456.233 329.674 457.382 329.674 458.699C329.674 459.988 329.366 461.137 328.749 462.09C328.132 463.043 327.235 463.8 326.085 464.304C324.936 464.809 323.562 465.061 322.02 465.061H317.954V470.246H314.617V452.281H322.02C323.59 452.281 324.936 452.533 326.085 453.066ZM325.188 461.334C325.945 460.717 326.31 459.848 326.31 458.699C326.31 457.55 325.945 456.681 325.188 456.065C324.431 455.448 323.337 455.14 321.879 455.14H317.982V462.287H321.879C323.309 462.258 324.431 461.922 325.188 461.334Z" fill="#748738"/>
<path d="M342.965 457.831C344.031 458.812 344.563 460.27 344.563 462.203V470.247H341.535V468.565C341.142 469.154 340.582 469.63 339.853 469.939C339.124 470.247 338.254 470.415 337.217 470.415C336.179 470.415 335.282 470.247 334.525 469.883C333.768 469.518 333.151 469.042 332.731 468.425C332.31 467.809 332.114 467.108 332.114 466.295C332.114 465.062 332.562 464.081 333.488 463.324C334.413 462.568 335.843 462.203 337.806 462.203H341.339V462.007C341.339 461.054 341.058 460.326 340.47 459.793C339.881 459.289 339.04 459.036 337.918 459.036C337.133 459.036 336.404 459.149 335.647 459.401C334.89 459.653 334.273 459.989 333.768 460.41L332.506 458.084C333.235 457.523 334.077 457.131 335.086 456.822C336.095 456.514 337.161 456.374 338.282 456.374C340.357 456.402 341.9 456.878 342.965 457.831ZM340.021 467.556C340.638 467.192 341.086 466.66 341.339 465.987V464.389H338.03C336.179 464.389 335.254 465.006 335.254 466.211C335.254 466.8 335.479 467.248 335.955 467.612C336.432 467.949 337.049 468.117 337.89 468.117C338.703 468.089 339.404 467.921 340.021 467.556Z" fill="#748738"/>
<path d="M349.19 451.216H352.386V470.274H349.19V451.216Z" fill="#748738"/>
<path d="M366.995 457.831C368.06 458.812 368.593 460.27 368.593 462.203V470.247H365.565V468.565C365.172 469.154 364.611 469.63 363.882 469.939C363.153 470.247 362.284 470.415 361.247 470.415C360.209 470.415 359.312 470.247 358.555 469.883C357.798 469.518 357.181 469.042 356.76 468.425C356.34 467.809 356.144 467.108 356.144 466.295C356.144 465.062 356.592 464.081 357.518 463.324C358.443 462.568 359.873 462.203 361.836 462.203H365.369V462.007C365.369 461.054 365.088 460.326 364.499 459.793C363.91 459.289 363.069 459.036 361.948 459.036C361.163 459.036 360.434 459.149 359.677 459.401C358.919 459.653 358.303 459.989 357.798 460.41L356.536 458.084C357.265 457.523 358.106 457.131 359.116 456.822C360.125 456.514 361.191 456.374 362.312 456.374C364.387 456.402 365.929 456.878 366.995 457.831ZM364.079 467.556C364.696 467.192 365.144 466.66 365.397 465.987V464.389H362.088C360.237 464.389 359.312 465.006 359.312 466.211C359.312 466.8 359.536 467.248 360.013 467.612C360.49 467.949 361.107 468.117 361.948 468.117C362.733 468.089 363.434 467.921 364.079 467.556Z" fill="#748738"/>
<path d="M375.827 469.546C374.706 468.957 373.808 468.116 373.192 467.051C372.547 465.986 372.238 464.781 372.238 463.408C372.238 462.035 372.547 460.857 373.192 459.792C373.837 458.728 374.706 457.915 375.827 457.298C376.949 456.71 378.239 456.401 379.669 456.401C381.015 456.401 382.22 456.682 383.23 457.214C384.239 457.747 385.024 458.559 385.529 459.568L383.062 460.998C382.669 460.353 382.164 459.877 381.575 459.568C380.987 459.26 380.342 459.092 379.641 459.092C378.435 459.092 377.454 459.484 376.668 460.269C375.883 461.054 375.491 462.091 375.491 463.38C375.491 464.669 375.883 465.706 376.668 466.491C377.454 467.275 378.435 467.668 379.669 467.668C380.37 467.668 381.015 467.5 381.603 467.191C382.192 466.883 382.697 466.407 383.09 465.762L385.557 467.191C385.024 468.228 384.239 469.013 383.23 469.574C382.22 470.134 381.043 470.414 379.697 470.414C378.211 470.442 376.949 470.134 375.827 469.546Z" fill="#748738"/>
<path d="M401.428 464.417H390.66C390.857 465.426 391.333 466.238 392.146 466.827C392.96 467.416 393.941 467.724 395.119 467.724C396.633 467.724 397.866 467.219 398.848 466.238L400.558 468.228C399.941 468.957 399.156 469.518 398.231 469.882C397.278 470.246 396.24 470.442 395.035 470.442C393.52 470.442 392.203 470.134 391.053 469.546C389.903 468.957 389.034 468.116 388.389 467.051C387.772 465.986 387.464 464.781 387.464 463.408C387.464 462.063 387.772 460.857 388.389 459.792C389.006 458.728 389.847 457.887 390.913 457.298C391.978 456.71 393.212 456.401 394.558 456.401C395.904 456.401 397.081 456.71 398.147 457.298C399.212 457.887 400.026 458.728 400.614 459.792C401.203 460.857 401.512 462.091 401.512 463.492C401.484 463.688 401.456 464.024 401.428 464.417ZM391.922 459.877C391.221 460.493 390.773 461.306 390.632 462.315H398.427C398.287 461.334 397.867 460.521 397.166 459.905C396.465 459.288 395.595 458.98 394.558 458.98C393.52 458.952 392.651 459.26 391.922 459.877Z" fill="#748738"/>
</svg>
